<?xml version="1.0" encoding="utf-8" standalone="no"?>
<!DOCTYPE svg PUBLIC "-//W3C//DTD SVG 1.1//EN"
  "http://www.w3.org/Graphics/SVG/1.1/DTD/svg11.dtd">
<!-- Created with matplotlib (https://matplotlib.org/) -->
<svg height="345.6pt" version="1.1" viewBox="0 0 460.8 345.6" width="460.8pt" xmlns="http://www.w3.org/2000/svg" xmlns:xlink="http://www.w3.org/1999/xlink">
 <defs>
  <style type="text/css">
*{stroke-linecap:butt;stroke-linejoin:round;}
  </style>
 </defs>
 <g id="figure_1">
  <g id="patch_1">
   <path d="M 0 345.6 
L 460.8 345.6 
L 460.8 0 
L 0 0 
z
" style="fill:#ffffff;"/>
  </g>
  <g id="axes_1">
   <g id="patch_2">
    <path d="M 57.6 307.584 
L 414.72 307.584 
L 414.72 41.472 
L 57.6 41.472 
z
" style="fill:#ffffff;"/>
   </g>
   <g id="matplotlib.axis_1">
    <g id="xtick_1">
     <g id="line2d_1">
      <defs>
       <path d="M 0 0 
L 0 3.5 
" id="mb4b89a63c1" style="stroke:#000000;stroke-width:0.8;"/>
      </defs>
      <g>
       <use style="stroke:#000000;stroke-width:0.8;" x="73.832727" xlink:href="#mb4b89a63c1" y="307.584"/>
      </g>
     </g>
     <g id="text_1">
      <!-- -10 -->
      <defs>
       <path d="M 4.046875 26.125 
L 29.296875 26.125 
L 29.296875 18.75 
L 4.046875 18.75 
z
" id="TimesNewRomanPSMT-45"/>
       <path d="M 11.71875 59.71875 
L 27.828125 67.578125 
L 29.4375 67.578125 
L 29.4375 11.671875 
Q 29.4375 6.109375 29.90625 4.734375 
Q 30.375 3.375 31.828125 2.640625 
Q 33.296875 1.90625 37.796875 1.8125 
L 37.796875 0 
L 12.890625 0 
L 12.890625 1.8125 
Q 17.578125 1.90625 18.9375 2.609375 
Q 20.3125 3.328125 20.84375 4.515625 
Q 21.390625 5.71875 21.390625 11.671875 
L 21.390625 47.40625 
Q 21.390625 54.640625 20.90625 56.6875 
Q 20.5625 58.25 19.65625 58.984375 
Q 18.75 59.71875 17.484375 59.71875 
Q 15.671875 59.71875 12.453125 58.203125 
z
" id="TimesNewRomanPSMT-49"/>
       <path d="M 3.609375 32.71875 
Q 3.609375 44.046875 7.03125 52.21875 
Q 10.453125 60.40625 16.109375 64.40625 
Q 20.515625 67.578125 25.203125 67.578125 
Q 32.8125 67.578125 38.875 59.8125 
Q 46.4375 50.203125 46.4375 33.734375 
Q 46.4375 22.21875 43.109375 14.15625 
Q 39.796875 6.109375 34.640625 2.46875 
Q 29.5 -1.171875 24.703125 -1.171875 
Q 15.234375 -1.171875 8.9375 10.015625 
Q 3.609375 19.4375 3.609375 32.71875 
z
M 13.1875 31.5 
Q 13.1875 17.828125 16.546875 9.1875 
Q 19.34375 1.90625 24.859375 1.90625 
Q 27.484375 1.90625 30.3125 4.265625 
Q 33.15625 6.640625 34.625 12.203125 
Q 36.859375 20.609375 36.859375 35.890625 
Q 36.859375 47.21875 34.515625 54.78125 
Q 32.765625 60.40625 29.984375 62.75 
Q 27.984375 64.359375 25.140625 64.359375 
Q 21.828125 64.359375 19.234375 61.375 
Q 15.71875 57.328125 14.453125 48.625 
Q 13.1875 39.9375 13.1875 31.5 
z
" id="TimesNewRomanPSMT-48"/>
      </defs>
      <g transform="translate(67.167884 321.52775)scale(0.1 -0.1)">
       <use xlink:href="#TimesNewRomanPSMT-45"/>
       <use x="33.300781" xlink:href="#TimesNewRomanPSMT-49"/>
       <use x="83.300781" xlink:href="#TimesNewRomanPSMT-48"/>
      </g>
     </g>
    </g>
    <g id="xtick_2">
     <g id="line2d_2">
      <g>
       <use style="stroke:#000000;stroke-width:0.8;" x="127.941818" xlink:href="#mb4b89a63c1" y="307.584"/>
      </g>
     </g>
     <g id="text_2">
      <!-- -5 -->
      <defs>
       <path d="M 43.40625 66.21875 
L 39.59375 57.90625 
L 19.671875 57.90625 
L 15.328125 49.03125 
Q 28.265625 47.125 35.84375 39.40625 
Q 42.328125 32.765625 42.328125 23.78125 
Q 42.328125 18.5625 40.203125 14.109375 
Q 38.09375 9.671875 34.859375 6.546875 
Q 31.640625 3.421875 27.6875 1.515625 
Q 22.078125 -1.171875 16.15625 -1.171875 
Q 10.203125 -1.171875 7.484375 0.84375 
Q 4.78125 2.875 4.78125 5.328125 
Q 4.78125 6.6875 5.90625 7.734375 
Q 7.03125 8.796875 8.734375 8.796875 
Q 10.015625 8.796875 10.96875 8.40625 
Q 11.921875 8.015625 14.203125 6.390625 
Q 17.875 3.859375 21.625 3.859375 
Q 27.34375 3.859375 31.65625 8.171875 
Q 35.984375 12.5 35.984375 18.703125 
Q 35.984375 24.703125 32.125 29.90625 
Q 28.265625 35.109375 21.484375 37.9375 
Q 16.15625 40.140625 6.984375 40.484375 
L 19.671875 66.21875 
z
" id="TimesNewRomanPSMT-53"/>
      </defs>
      <g transform="translate(123.776974 321.52775)scale(0.1 -0.1)">
       <use xlink:href="#TimesNewRomanPSMT-45"/>
       <use x="33.300781" xlink:href="#TimesNewRomanPSMT-53"/>
      </g>
     </g>
    </g>
    <g id="xtick_3">
     <g id="line2d_3">
      <g>
       <use style="stroke:#000000;stroke-width:0.8;" x="182.050909" xlink:href="#mb4b89a63c1" y="307.584"/>
      </g>
     </g>
     <g id="text_3">
      <!-- 0 -->
      <g transform="translate(179.550909 321.52775)scale(0.1 -0.1)">
       <use xlink:href="#TimesNewRomanPSMT-48"/>
      </g>
     </g>
    </g>
    <g id="xtick_4">
     <g id="line2d_4">
      <g>
       <use style="stroke:#000000;stroke-width:0.8;" x="236.16" xlink:href="#mb4b89a63c1" y="307.584"/>
      </g>
     </g>
     <g id="text_4">
      <!-- 5 -->
      <g transform="translate(233.66 321.52775)scale(0.1 -0.1)">
       <use xlink:href="#TimesNewRomanPSMT-53"/>
      </g>
     </g>
    </g>
    <g id="xtick_5">
     <g id="line2d_5">
      <g>
       <use style="stroke:#000000;stroke-width:0.8;" x="290.269091" xlink:href="#mb4b89a63c1" y="307.584"/>
      </g>
     </g>
     <g id="text_5">
      <!-- 10 -->
      <g transform="translate(285.269091 321.52775)scale(0.1 -0.1)">
       <use xlink:href="#TimesNewRomanPSMT-49"/>
       <use x="50" xlink:href="#TimesNewRomanPSMT-48"/>
      </g>
     </g>
    </g>
    <g id="xtick_6">
     <g id="line2d_6">
      <g>
       <use style="stroke:#000000;stroke-width:0.8;" x="344.378182" xlink:href="#mb4b89a63c1" y="307.584"/>
      </g>
     </g>
     <g id="text_6">
      <!-- 15 -->
      <g transform="translate(339.378182 321.52775)scale(0.1 -0.1)">
       <use xlink:href="#TimesNewRomanPSMT-49"/>
       <use x="50" xlink:href="#TimesNewRomanPSMT-53"/>
      </g>
     </g>
    </g>
    <g id="xtick_7">
     <g id="line2d_7">
      <g>
       <use style="stroke:#000000;stroke-width:0.8;" x="398.487273" xlink:href="#mb4b89a63c1" y="307.584"/>
      </g>
     </g>
     <g id="text_7">
      <!-- 20 -->
      <defs>
       <path d="M 45.84375 12.75 
L 41.21875 0 
L 2.15625 0 
L 2.15625 1.8125 
Q 19.390625 17.53125 26.421875 27.484375 
Q 33.453125 37.453125 33.453125 45.703125 
Q 33.453125 52 29.59375 56.046875 
Q 25.734375 60.109375 20.359375 60.109375 
Q 15.484375 60.109375 11.59375 57.25 
Q 7.71875 54.390625 5.859375 48.875 
L 4.046875 48.875 
Q 5.28125 57.90625 10.328125 62.734375 
Q 15.375 67.578125 22.953125 67.578125 
Q 31 67.578125 36.390625 62.40625 
Q 41.796875 57.234375 41.796875 50.203125 
Q 41.796875 45.171875 39.453125 40.140625 
Q 35.84375 32.234375 27.734375 23.390625 
Q 15.578125 10.109375 12.546875 7.375 
L 29.828125 7.375 
Q 35.109375 7.375 37.234375 7.765625 
Q 39.359375 8.15625 41.0625 9.34375 
Q 42.78125 10.546875 44.046875 12.75 
z
" id="TimesNewRomanPSMT-50"/>
      </defs>
      <g transform="translate(393.487273 321.52775)scale(0.1 -0.1)">
       <use xlink:href="#TimesNewRomanPSMT-50"/>
       <use x="50" xlink:href="#TimesNewRomanPSMT-48"/>
      </g>
     </g>
    </g>
    <g id="text_8">
     <!-- $\mathrm{SNR(dB)}$ -->
     <defs>
      <path d="M 46.90625 46.296875 
L 44.40625 46.296875 
Q 42.703125 52.5 40.296875 55.703125 
Q 34.203125 63.5 25.796875 63.5 
Q 21.203125 63.5 18.453125 60.84375 
Q 15.703125 58.203125 15.703125 54 
Q 15.703125 52 16.703125 50.09375 
Q 17.703125 48.203125 18.84375 46.84375 
Q 20 45.5 22.890625 43.5 
Q 25.796875 41.5 27.59375 40.453125 
Q 29.40625 39.40625 33.59375 36.90625 
Q 41.703125 32.203125 45.390625 27.546875 
Q 49.09375 22.90625 49.09375 17.296875 
Q 49.09375 9 43.296875 3.796875 
Q 37.5 -1.40625 28.703125 -1.40625 
Q 22.203125 -1.40625 16.90625 0.90625 
Q 14.296875 2 12.203125 2 
Q 11 2 10.203125 1.09375 
Q 9.40625 0.203125 9.40625 -1.296875 
L 7.203125 -1.296875 
L 4.296875 19.90625 
L 6.5 19.90625 
Q 13.203125 2.203125 27.09375 2.203125 
Q 32.40625 2.203125 35.703125 5.34375 
Q 39 8.5 39 13.40625 
Q 39 18.09375 36.09375 21.296875 
Q 31.296875 26.5 19.296875 32.90625 
Q 7.09375 39.40625 7.09375 50.09375 
Q 7.09375 58.09375 12 62.84375 
Q 16.90625 67.59375 24.5 67.59375 
Q 29.796875 67.59375 35 65.40625 
Q 37.703125 64.203125 39.40625 64.203125 
Q 42 64.203125 42.59375 67.59375 
L 44.703125 67.59375 
z
" id="STIXGeneral-Regular-83"/>
      <path d="M 70.703125 66.203125 
L 70.703125 64.296875 
Q 65.59375 63.796875 64.09375 62.5 
Q 62.5 61.09375 61.84375 58.6875 
Q 61.203125 56.296875 61.203125 50.703125 
L 61.203125 -1.09375 
L 59.40625 -1.09375 
L 15.296875 53.796875 
L 15.296875 15 
Q 15.296875 7.40625 17 5.046875 
Q 18.703125 2.703125 24.59375 1.90625 
L 24.59375 0 
L 1.203125 0 
L 1.203125 1.90625 
Q 7.40625 2.59375 9.15625 4.84375 
Q 10.90625 7.09375 10.90625 15 
L 10.90625 59 
Q 8.296875 62.203125 6.5 63.25 
Q 4.703125 64.296875 1.203125 64.296875 
L 1.203125 66.203125 
L 18.203125 66.203125 
L 56.796875 17.90625 
L 56.796875 51.90625 
Q 56.796875 59.5 54.90625 61.703125 
Q 53.703125 63 52.25 63.453125 
Q 50.796875 63.90625 47 64.296875 
L 47 66.203125 
z
" id="STIXGeneral-Regular-78"/>
      <path d="M 66 0 
L 49.796875 0 
L 26 30.796875 
L 20.40625 30.59375 
L 20.40625 11.203125 
Q 20.40625 5.5 21.953125 3.890625 
Q 23.5 2.296875 29.296875 1.90625 
L 29.296875 0 
L 1.703125 0 
L 1.703125 1.90625 
Q 7.40625 2.40625 8.796875 4.09375 
Q 10.203125 5.796875 10.203125 12.40625 
L 10.203125 55.09375 
Q 10.203125 60.703125 8.796875 62.296875 
Q 7.40625 63.90625 1.703125 64.296875 
L 1.703125 66.203125 
L 28.90625 66.203125 
Q 42.59375 66.203125 49.796875 60.296875 
Q 54.703125 56.296875 54.703125 48.296875 
Q 54.703125 34.703125 36.59375 31.90625 
L 56.59375 6.59375 
Q 58.703125 4 60.59375 3.09375 
Q 62.5 2.203125 66 1.90625 
z
M 20.40625 58.296875 
L 20.40625 34.296875 
Q 27.59375 34.40625 31.09375 35.09375 
Q 34.59375 35.796875 38.09375 37.703125 
Q 43.796875 40.90625 43.796875 49.09375 
Q 43.796875 62.5 25.5 62.5 
Q 22.796875 62.5 21.59375 61.640625 
Q 20.40625 60.796875 20.40625 58.296875 
z
" id="STIXGeneral-Regular-82"/>
      <path d="M 30.40625 -16.09375 
L 29.203125 -17.703125 
Q 17.59375 -11.09375 11.1875 0.5 
Q 4.796875 12.09375 4.796875 25.203125 
Q 4.796875 52.90625 29.5 67.59375 
L 30.40625 66 
Q 20.203125 57.296875 16.796875 48.84375 
Q 13.40625 40.40625 13.40625 25.5 
Q 13.40625 10.703125 16.90625 1.5 
Q 20.40625 -7.703125 30.40625 -16.09375 
z
" id="STIXGeneral-Regular-40"/>
      <path d="M 49.09375 4.203125 
L 34.40625 -1 
L 34 -0.703125 
L 34 5.703125 
Q 29.203125 -1 21.203125 -1 
Q 12.90625 -1 7.796875 4.953125 
Q 2.703125 10.90625 2.703125 20.5 
Q 2.703125 31.09375 8.796875 38.546875 
Q 14.90625 46 23.5 46 
Q 28.90625 46 34 41.703125 
L 34 57.296875 
Q 34 60.40625 33.09375 61.40625 
Q 32.203125 62.40625 29.40625 62.40625 
Q 28 62.40625 27.203125 62.296875 
L 27.203125 63.90625 
Q 36.296875 66.296875 41.90625 68.296875 
L 42.40625 68.09375 
L 42.40625 11.40625 
Q 42.40625 7.90625 43.25 6.796875 
Q 44.09375 5.703125 46.796875 5.703125 
Q 47.40625 5.703125 49.09375 5.796875 
z
M 34 10.203125 
L 34 33.203125 
Q 34 37.203125 30.953125 40.203125 
Q 27.90625 43.203125 23.796875 43.203125 
Q 18.09375 43.203125 14.6875 38.09375 
Q 11.296875 33 11.296875 24.5 
Q 11.296875 15.296875 15.046875 9.75 
Q 18.796875 4.203125 25.09375 4.203125 
Q 29.796875 4.203125 32.5 7.40625 
Q 34 9.09375 34 10.203125 
z
" id="STIXGeneral-Regular-100"/>
      <path d="M 42.203125 34.90625 
L 42.203125 34.796875 
Q 49.703125 33.59375 54.40625 29.296875 
Q 59.296875 24.90625 59.296875 17.796875 
Q 59.296875 9.5 52.796875 4.75 
Q 46.296875 0 35.40625 0 
L 1.703125 0 
L 1.703125 1.90625 
Q 7.59375 2.09375 9.4375 3.84375 
Q 11.296875 5.59375 11.296875 11.296875 
L 11.296875 55 
Q 11.296875 60.796875 9.59375 62.34375 
Q 7.90625 63.90625 1.703125 64.296875 
L 1.703125 66.203125 
L 29.703125 66.203125 
Q 42.59375 66.203125 49.25 61.84375 
Q 55.90625 57.5 55.90625 49.5 
Q 55.90625 42.703125 51.796875 39.09375 
Q 48.90625 36.59375 42.203125 34.90625 
z
M 21.5 36.59375 
L 30.703125 36.59375 
Q 45.703125 36.59375 45.703125 49 
Q 45.703125 55.40625 41.25 58.953125 
Q 36.796875 62.5 28 62.5 
L 23.90625 62.5 
Q 21.5 62.5 21.5 59.296875 
z
M 21.5 32.59375 
L 21.5 8.203125 
Q 21.5 5.703125 22.84375 4.703125 
Q 24.203125 3.703125 27.703125 3.703125 
Q 34.5 3.703125 37.703125 4.453125 
Q 40.90625 5.203125 44 8 
Q 47.796875 11.296875 47.796875 17.90625 
Q 47.796875 25.5 43.09375 28.59375 
Q 42 29.40625 40.890625 29.953125 
Q 39.796875 30.5 38.9375 30.84375 
Q 38.09375 31.203125 36.6875 31.5 
Q 35.296875 31.796875 34.546875 31.9375 
Q 33.796875 32.09375 31.890625 32.1875 
Q 30 32.296875 29.09375 32.34375 
Q 28.203125 32.40625 25.546875 32.5 
Q 22.90625 32.59375 21.5 32.59375 
z
" id="STIXGeneral-Regular-66"/>
      <path d="M 2.90625 66 
L 4.09375 67.59375 
Q 15.5 60.796875 22 49.1875 
Q 28.5 37.59375 28.5 24.703125 
Q 28.5 -2.59375 3.796875 -17.703125 
L 2.90625 -16.09375 
Q 13.203125 -7.59375 16.546875 0.84375 
Q 19.90625 9.296875 19.90625 24.40625 
Q 19.90625 39.59375 16.546875 48.75 
Q 13.203125 57.90625 2.90625 66 
z
" id="STIXGeneral-Regular-41"/>
     </defs>
     <g transform="translate(213.48 335.946812)scale(0.12 -0.12)">
      <use transform="translate(0 0.703125)" xlink:href="#STIXGeneral-Regular-83"/>
      <use transform="translate(55.599991 0.703125)" xlink:href="#STIXGeneral-Regular-78"/>
      <use transform="translate(127.799973 0.703125)" xlink:href="#STIXGeneral-Regular-82"/>
      <use transform="translate(194.499969 0.703125)" xlink:href="#STIXGeneral-Regular-40"/>
      <use transform="translate(227.799957 0.703125)" xlink:href="#STIXGeneral-Regular-100"/>
      <use transform="translate(277.799942 0.703125)" xlink:href="#STIXGeneral-Regular-66"/>
      <use transform="translate(344.499939 0.703125)" xlink:href="#STIXGeneral-Regular-41"/>
     </g>
    </g>
   </g>
   <g id="matplotlib.axis_2">
    <g id="ytick_1">
     <g id="line2d_8">
      <defs>
       <path d="M 0 0 
L -3.5 0 
" id="m8d0b98310f" style="stroke:#000000;stroke-width:0.8;"/>
      </defs>
      <g>
       <use style="stroke:#000000;stroke-width:0.8;" x="57.6" xlink:href="#m8d0b98310f" y="295.49209"/>
      </g>
     </g>
     <g id="text_9">
      <!-- 0.0 -->
      <defs>
       <path d="M 12.5 9.46875 
Q 14.796875 9.46875 16.359375 7.875 
Q 17.921875 6.296875 17.921875 4.046875 
Q 17.921875 1.8125 16.328125 0.21875 
Q 14.75 -1.375 12.5 -1.375 
Q 10.25 -1.375 8.65625 0.21875 
Q 7.078125 1.8125 7.078125 4.046875 
Q 7.078125 6.34375 8.65625 7.90625 
Q 10.25 9.46875 12.5 9.46875 
z
" id="TimesNewRomanPSMT-46"/>
      </defs>
      <g transform="translate(38.1 298.963965)scale(0.1 -0.1)">
       <use xlink:href="#TimesNewRomanPSMT-48"/>
       <use x="50" xlink:href="#TimesNewRomanPSMT-46"/>
       <use x="75" xlink:href="#TimesNewRomanPSMT-48"/>
      </g>
     </g>
    </g>
    <g id="ytick_2">
     <g id="line2d_9">
      <g>
       <use style="stroke:#000000;stroke-width:0.8;" x="57.6" xlink:href="#m8d0b98310f" y="236.464259"/>
      </g>
     </g>
     <g id="text_10">
      <!-- 0.5 -->
      <g transform="translate(38.1 239.936134)scale(0.1 -0.1)">
       <use xlink:href="#TimesNewRomanPSMT-48"/>
       <use x="50" xlink:href="#TimesNewRomanPSMT-46"/>
       <use x="75" xlink:href="#TimesNewRomanPSMT-53"/>
      </g>
     </g>
    </g>
    <g id="ytick_3">
     <g id="line2d_10">
      <g>
       <use style="stroke:#000000;stroke-width:0.8;" x="57.6" xlink:href="#m8d0b98310f" y="177.436429"/>
      </g>
     </g>
     <g id="text_11">
      <!-- 1.0 -->
      <g transform="translate(38.1 180.908304)scale(0.1 -0.1)">
       <use xlink:href="#TimesNewRomanPSMT-49"/>
       <use x="50" xlink:href="#TimesNewRomanPSMT-46"/>
       <use x="75" xlink:href="#TimesNewRomanPSMT-48"/>
      </g>
     </g>
    </g>
    <g id="ytick_4">
     <g id="line2d_11">
      <g>
       <use style="stroke:#000000;stroke-width:0.8;" x="57.6" xlink:href="#m8d0b98310f" y="118.408598"/>
      </g>
     </g>
     <g id="text_12">
      <!-- 1.5 -->
      <g transform="translate(38.1 121.880473)scale(0.1 -0.1)">
       <use xlink:href="#TimesNewRomanPSMT-49"/>
       <use x="50" xlink:href="#TimesNewRomanPSMT-46"/>
       <use x="75" xlink:href="#TimesNewRomanPSMT-53"/>
      </g>
     </g>
    </g>
    <g id="ytick_5">
     <g id="line2d_12">
      <g>
       <use style="stroke:#000000;stroke-width:0.8;" x="57.6" xlink:href="#m8d0b98310f" y="59.380767"/>
      </g>
     </g>
     <g id="text_13">
      <!-- 2.0 -->
      <g transform="translate(38.1 62.852642)scale(0.1 -0.1)">
       <use xlink:href="#TimesNewRomanPSMT-50"/>
       <use x="50" xlink:href="#TimesNewRomanPSMT-46"/>
       <use x="75" xlink:href="#TimesNewRomanPSMT-48"/>
      </g>
     </g>
    </g>
    <g id="text_14">
     <!-- $\mathrm{NMSE}$ -->
     <defs>
      <path d="M 86.40625 0 
L 58.40625 0 
L 58.40625 1.90625 
Q 64.296875 2.296875 65.84375 4.140625 
Q 67.40625 6 67.40625 12.296875 
L 67.40625 57.203125 
L 41.90625 0 
L 40.5 0 
L 15.296875 54.90625 
L 15.296875 15.09375 
Q 15.296875 7 17 4.59375 
Q 18.703125 2.203125 24.59375 1.90625 
L 24.59375 0 
L 1.203125 0 
L 1.203125 1.90625 
Q 5.59375 2.203125 7.5 3.203125 
Q 9.40625 4.203125 10.15625 6.75 
Q 10.90625 9.296875 10.90625 15.09375 
L 10.90625 54.90625 
Q 10.90625 60.59375 9.203125 62.25 
Q 7.5 63.90625 1.40625 64.296875 
L 1.40625 66.203125 
L 21.203125 66.203125 
L 44.296875 16 
L 66.40625 66.203125 
L 86.296875 66.203125 
L 86.296875 64.296875 
Q 80.90625 64.203125 79.25 62.390625 
Q 77.59375 60.59375 77.59375 55 
L 77.59375 11.203125 
Q 77.59375 5.90625 79.25 4.09375 
Q 80.90625 2.296875 86.40625 1.90625 
z
" id="STIXGeneral-Regular-77"/>
      <path d="M 59.703125 16.90625 
L 55.09375 0 
L 1.203125 0 
L 1.203125 1.90625 
Q 6.90625 2.296875 8.40625 3.9375 
Q 9.90625 5.59375 9.90625 11.40625 
L 9.90625 55 
Q 9.90625 60.59375 8.34375 62.296875 
Q 6.796875 64 1.203125 64.296875 
L 1.203125 66.203125 
L 54.203125 66.203125 
L 54.59375 51.90625 
L 52.09375 51.90625 
Q 51 58.59375 48.203125 60.5 
Q 45.40625 62.40625 36.703125 62.40625 
L 23.59375 62.40625 
Q 21.40625 62.40625 20.75 61.75 
Q 20.09375 61.09375 20.09375 58.796875 
L 20.09375 36.796875 
L 35.203125 36.796875 
Q 41.5 36.796875 43.546875 38.59375 
Q 45.59375 40.40625 46.5 46.40625 
L 48.796875 46.40625 
L 48.796875 23 
L 46.5 23 
Q 45.59375 29.296875 43.59375 31 
Q 41.59375 32.703125 35.203125 32.703125 
L 20.09375 32.703125 
L 20.09375 8.40625 
Q 20.09375 5.40625 22.1875 4.546875 
Q 24.296875 3.703125 30.203125 3.703125 
L 33.796875 3.703125 
Q 44.5 3.703125 49 6.296875 
Q 53.5 8.90625 56.90625 16.90625 
z
" id="STIXGeneral-Regular-69"/>
     </defs>
     <g transform="translate(32.553125 191.208)rotate(-90)scale(0.12 -0.12)">
      <use transform="translate(0 0.40625)" xlink:href="#STIXGeneral-Regular-78"/>
      <use transform="translate(72.199982 0.40625)" xlink:href="#STIXGeneral-Regular-77"/>
      <use transform="translate(161.099976 0.40625)" xlink:href="#STIXGeneral-Regular-83"/>
      <use transform="translate(216.699966 0.40625)" xlink:href="#STIXGeneral-Regular-69"/>
     </g>
    </g>
   </g>
   <g id="line2d_13">
    <path clip-path="url(#p2902ed3f19)" d="M 73.832727 251.736798 
L 95.476364 265.221118 
L 117.12 273.071236 
L 138.763636 278.673189 
L 160.407273 282.446351 
L 182.050909 284.568625 
L 236.16 287.518862 
L 290.269091 288.423747 
L 344.378182 288.803597 
L 398.487273 288.83065 
" style="fill:none;stroke:#1f77b4;stroke-linecap:square;stroke-width:2;"/>
    <defs>
     <path d="M 0 4 
C 1.060812 4 2.078319 3.578535 2.828427 2.828427 
C 3.578535 2.078319 4 1.060812 4 0 
C 4 -1.060812 3.578535 -2.078319 2.828427 -2.828427 
C 2.078319 -3.578535 1.060812 -4 0 -4 
C -1.060812 -4 -2.078319 -3.578535 -2.828427 -2.828427 
C -3.578535 -2.078319 -4 -1.060812 -4 0 
C -4 1.060812 -3.578535 2.078319 -2.828427 2.828427 
C -2.078319 3.578535 -1.060812 4 0 4 
z
" id="m761f6aec0f" style="stroke:#1f77b4;"/>
    </defs>
    <g clip-path="url(#p2902ed3f19)">
     <use style="fill-opacity:0;stroke:#1f77b4;" x="73.832727" xlink:href="#m761f6aec0f" y="251.736798"/>
     <use style="fill-opacity:0;stroke:#1f77b4;" x="95.476364" xlink:href="#m761f6aec0f" y="265.221118"/>
     <use style="fill-opacity:0;stroke:#1f77b4;" x="117.12" xlink:href="#m761f6aec0f" y="273.071236"/>
     <use style="fill-opacity:0;stroke:#1f77b4;" x="138.763636" xlink:href="#m761f6aec0f" y="278.673189"/>
     <use style="fill-opacity:0;stroke:#1f77b4;" x="160.407273" xlink:href="#m761f6aec0f" y="282.446351"/>
     <use style="fill-opacity:0;stroke:#1f77b4;" x="182.050909" xlink:href="#m761f6aec0f" y="284.568625"/>
     <use style="fill-opacity:0;stroke:#1f77b4;" x="236.16" xlink:href="#m761f6aec0f" y="287.518862"/>
     <use style="fill-opacity:0;stroke:#1f77b4;" x="290.269091" xlink:href="#m761f6aec0f" y="288.423747"/>
     <use style="fill-opacity:0;stroke:#1f77b4;" x="344.378182" xlink:href="#m761f6aec0f" y="288.803597"/>
     <use style="fill-opacity:0;stroke:#1f77b4;" x="398.487273" xlink:href="#m761f6aec0f" y="288.83065"/>
    </g>
   </g>
   <g id="line2d_14">
    <path clip-path="url(#p2902ed3f19)" d="M 73.832727 246.9031 
L 95.476364 261.497452 
L 117.12 271.246726 
L 138.763636 277.852989 
L 160.407273 281.788279 
L 182.050909 284.606279 
L 236.16 287.892981 
L 290.269091 288.801942 
L 344.378182 289.180663 
L 398.487273 289.135121 
" style="fill:none;stroke:#ff7f0e;stroke-linecap:square;stroke-width:2;"/>
    <defs>
     <path d="M 0 -4 
L -0.898056 -1.236068 
L -3.804226 -1.236068 
L -1.453085 0.472136 
L -2.351141 3.236068 
L -0 1.527864 
L 2.351141 3.236068 
L 1.453085 0.472136 
L 3.804226 -1.236068 
L 0.898056 -1.236068 
z
" id="m60ab6e2017" style="stroke:#ff7f0e;stroke-linejoin:bevel;"/>
    </defs>
    <g clip-path="url(#p2902ed3f19)">
     <use style="fill-opacity:0;stroke:#ff7f0e;stroke-linejoin:bevel;" x="73.832727" xlink:href="#m60ab6e2017" y="246.9031"/>
     <use style="fill-opacity:0;stroke:#ff7f0e;stroke-linejoin:bevel;" x="95.476364" xlink:href="#m60ab6e2017" y="261.497452"/>
     <use style="fill-opacity:0;stroke:#ff7f0e;stroke-linejoin:bevel;" x="117.12" xlink:href="#m60ab6e2017" y="271.246726"/>
     <use style="fill-opacity:0;stroke:#ff7f0e;stroke-linejoin:bevel;" x="138.763636" xlink:href="#m60ab6e2017" y="277.852989"/>
     <use style="fill-opacity:0;stroke:#ff7f0e;stroke-linejoin:bevel;" x="160.407273" xlink:href="#m60ab6e2017" y="281.788279"/>
     <use style="fill-opacity:0;stroke:#ff7f0e;stroke-linejoin:bevel;" x="182.050909" xlink:href="#m60ab6e2017" y="284.606279"/>
     <use style="fill-opacity:0;stroke:#ff7f0e;stroke-linejoin:bevel;" x="236.16" xlink:href="#m60ab6e2017" y="287.892981"/>
     <use style="fill-opacity:0;stroke:#ff7f0e;stroke-linejoin:bevel;" x="290.269091" xlink:href="#m60ab6e2017" y="288.801942"/>
     <use style="fill-opacity:0;stroke:#ff7f0e;stroke-linejoin:bevel;" x="344.378182" xlink:href="#m60ab6e2017" y="289.180663"/>
     <use style="fill-opacity:0;stroke:#ff7f0e;stroke-linejoin:bevel;" x="398.487273" xlink:href="#m60ab6e2017" y="289.135121"/>
    </g>
   </g>
   <g id="line2d_15">
    <path clip-path="url(#p2902ed3f19)" d="M 73.832727 224.298241 
L 95.476364 243.762031 
L 117.12 257.771812 
L 138.763636 265.923079 
L 160.407273 271.476698 
L 182.050909 274.797309 
L 236.16 278.578968 
L 290.269091 279.719562 
L 344.378182 280.051575 
L 398.487273 280.10677 
" style="fill:none;stroke:#2ca02c;stroke-linecap:square;stroke-width:2;"/>
    <defs>
     <path d="M 0 5.656854 
L 3.394113 0 
L 0 -5.656854 
L -3.394113 0 
z
" id="maa0ead33da" style="stroke:#2ca02c;stroke-linejoin:miter;"/>
    </defs>
    <g clip-path="url(#p2902ed3f19)">
     <use style="fill-opacity:0;stroke:#2ca02c;stroke-linejoin:miter;" x="73.832727" xlink:href="#maa0ead33da" y="224.298241"/>
     <use style="fill-opacity:0;stroke:#2ca02c;stroke-linejoin:miter;" x="95.476364" xlink:href="#maa0ead33da" y="243.762031"/>
     <use style="fill-opacity:0;stroke:#2ca02c;stroke-linejoin:miter;" x="117.12" xlink:href="#maa0ead33da" y="257.771812"/>
     <use style="fill-opacity:0;stroke:#2ca02c;stroke-linejoin:miter;" x="138.763636" xlink:href="#maa0ead33da" y="265.923079"/>
     <use style="fill-opacity:0;stroke:#2ca02c;stroke-linejoin:miter;" x="160.407273" xlink:href="#maa0ead33da" y="271.476698"/>
     <use style="fill-opacity:0;stroke:#2ca02c;stroke-linejoin:miter;" x="182.050909" xlink:href="#maa0ead33da" y="274.797309"/>
     <use style="fill-opacity:0;stroke:#2ca02c;stroke-linejoin:miter;" x="236.16" xlink:href="#maa0ead33da" y="278.578968"/>
     <use style="fill-opacity:0;stroke:#2ca02c;stroke-linejoin:miter;" x="290.269091" xlink:href="#maa0ead33da" y="279.719562"/>
     <use style="fill-opacity:0;stroke:#2ca02c;stroke-linejoin:miter;" x="344.378182" xlink:href="#maa0ead33da" y="280.051575"/>
     <use style="fill-opacity:0;stroke:#2ca02c;stroke-linejoin:miter;" x="398.487273" xlink:href="#maa0ead33da" y="280.10677"/>
    </g>
   </g>
   <g id="line2d_16">
    <path clip-path="url(#p2902ed3f19)" d="M 73.832727 248.569475 
L 95.476364 261.847809 
L 117.12 269.97938 
L 138.763636 275.061324 
L 160.407273 278.411023 
L 182.050909 280.59393 
L 236.16 282.954665 
L 290.269091 283.505519 
L 344.378182 283.916175 
L 398.487273 283.959347 
" style="fill:none;stroke:#d62728;stroke-linecap:square;stroke-width:2;"/>
    <defs>
     <path d="M -0 4 
L 4 -4 
L -4 -4 
z
" id="m6cd47928f7" style="stroke:#d62728;stroke-linejoin:miter;"/>
    </defs>
    <g clip-path="url(#p2902ed3f19)">
     <use style="fill-opacity:0;stroke:#d62728;stroke-linejoin:miter;" x="73.832727" xlink:href="#m6cd47928f7" y="248.569475"/>
     <use style="fill-opacity:0;stroke:#d62728;stroke-linejoin:miter;" x="95.476364" xlink:href="#m6cd47928f7" y="261.847809"/>
     <use style="fill-opacity:0;stroke:#d62728;stroke-linejoin:miter;" x="117.12" xlink:href="#m6cd47928f7" y="269.97938"/>
     <use style="fill-opacity:0;stroke:#d62728;stroke-linejoin:miter;" x="138.763636" xlink:href="#m6cd47928f7" y="275.061324"/>
     <use style="fill-opacity:0;stroke:#d62728;stroke-linejoin:miter;" x="160.407273" xlink:href="#m6cd47928f7" y="278.411023"/>
     <use style="fill-opacity:0;stroke:#d62728;stroke-linejoin:miter;" x="182.050909" xlink:href="#m6cd47928f7" y="280.59393"/>
     <use style="fill-opacity:0;stroke:#d62728;stroke-linejoin:miter;" x="236.16" xlink:href="#m6cd47928f7" y="282.954665"/>
     <use style="fill-opacity:0;stroke:#d62728;stroke-linejoin:miter;" x="290.269091" xlink:href="#m6cd47928f7" y="283.505519"/>
     <use style="fill-opacity:0;stroke:#d62728;stroke-linejoin:miter;" x="344.378182" xlink:href="#m6cd47928f7" y="283.916175"/>
     <use style="fill-opacity:0;stroke:#d62728;stroke-linejoin:miter;" x="398.487273" xlink:href="#m6cd47928f7" y="283.959347"/>
    </g>
   </g>
   <g id="line2d_17">
    <path clip-path="url(#p2902ed3f19)" d="M 73.832727 295.438243 
L 95.476364 295.446244 
L 117.12 295.45466 
L 138.763636 295.463469 
L 160.407273 295.471601 
L 182.050909 295.478443 
L 236.16 295.486604 
L 290.269091 295.487897 
L 344.378182 295.487997 
L 398.487273 295.488 
" style="fill:none;stroke:#9467bd;stroke-linecap:square;stroke-width:2;"/>
    <defs>
     <path d="M -4 -0 
L 4 4 
L 4 -4 
z
" id="m534f54dd93" style="stroke:#9467bd;stroke-linejoin:miter;"/>
    </defs>
    <g clip-path="url(#p2902ed3f19)">
     <use style="fill-opacity:0;stroke:#9467bd;stroke-linejoin:miter;" x="73.832727" xlink:href="#m534f54dd93" y="295.438243"/>
     <use style="fill-opacity:0;stroke:#9467bd;stroke-linejoin:miter;" x="95.476364" xlink:href="#m534f54dd93" y="295.446244"/>
     <use style="fill-opacity:0;stroke:#9467bd;stroke-linejoin:miter;" x="117.12" xlink:href="#m534f54dd93" y="295.45466"/>
     <use style="fill-opacity:0;stroke:#9467bd;stroke-linejoin:miter;" x="138.763636" xlink:href="#m534f54dd93" y="295.463469"/>
     <use style="fill-opacity:0;stroke:#9467bd;stroke-linejoin:miter;" x="160.407273" xlink:href="#m534f54dd93" y="295.471601"/>
     <use style="fill-opacity:0;stroke:#9467bd;stroke-linejoin:miter;" x="182.050909" xlink:href="#m534f54dd93" y="295.478443"/>
     <use style="fill-opacity:0;stroke:#9467bd;stroke-linejoin:miter;" x="236.16" xlink:href="#m534f54dd93" y="295.486604"/>
     <use style="fill-opacity:0;stroke:#9467bd;stroke-linejoin:miter;" x="290.269091" xlink:href="#m534f54dd93" y="295.487897"/>
     <use style="fill-opacity:0;stroke:#9467bd;stroke-linejoin:miter;" x="344.378182" xlink:href="#m534f54dd93" y="295.487997"/>
     <use style="fill-opacity:0;stroke:#9467bd;stroke-linejoin:miter;" x="398.487273" xlink:href="#m534f54dd93" y="295.488"/>
    </g>
   </g>
   <g id="line2d_18">
    <path clip-path="url(#p2902ed3f19)" d="M 73.832727 295.270878 
L 95.476364 295.316925 
L 117.12 295.356549 
L 138.763636 295.385391 
L 160.407273 295.405558 
L 182.050909 295.421324 
L 236.16 295.441299 
L 290.269091 295.448527 
L 344.378182 295.451001 
L 398.487273 295.451767 
" style="fill:none;stroke:#8c564b;stroke-linecap:square;stroke-width:2;"/>
    <defs>
     <path d="M 0 -4 
L -4 4 
L 4 4 
z
" id="m677761c0c5" style="stroke:#8c564b;stroke-linejoin:miter;"/>
    </defs>
    <g clip-path="url(#p2902ed3f19)">
     <use style="fill-opacity:0;stroke:#8c564b;stroke-linejoin:miter;" x="73.832727" xlink:href="#m677761c0c5" y="295.270878"/>
     <use style="fill-opacity:0;stroke:#8c564b;stroke-linejoin:miter;" x="95.476364" xlink:href="#m677761c0c5" y="295.316925"/>
     <use style="fill-opacity:0;stroke:#8c564b;stroke-linejoin:miter;" x="117.12" xlink:href="#m677761c0c5" y="295.356549"/>
     <use style="fill-opacity:0;stroke:#8c564b;stroke-linejoin:miter;" x="138.763636" xlink:href="#m677761c0c5" y="295.385391"/>
     <use style="fill-opacity:0;stroke:#8c564b;stroke-linejoin:miter;" x="160.407273" xlink:href="#m677761c0c5" y="295.405558"/>
     <use style="fill-opacity:0;stroke:#8c564b;stroke-linejoin:miter;" x="182.050909" xlink:href="#m677761c0c5" y="295.421324"/>
     <use style="fill-opacity:0;stroke:#8c564b;stroke-linejoin:miter;" x="236.16" xlink:href="#m677761c0c5" y="295.441299"/>
     <use style="fill-opacity:0;stroke:#8c564b;stroke-linejoin:miter;" x="290.269091" xlink:href="#m677761c0c5" y="295.448527"/>
     <use style="fill-opacity:0;stroke:#8c564b;stroke-linejoin:miter;" x="344.378182" xlink:href="#m677761c0c5" y="295.451001"/>
     <use style="fill-opacity:0;stroke:#8c564b;stroke-linejoin:miter;" x="398.487273" xlink:href="#m677761c0c5" y="295.451767"/>
    </g>
   </g>
   <g id="line2d_19">
    <path clip-path="url(#p2902ed3f19)" d="M 73.832727 175.416564 
L 95.476364 211.730962 
L 117.12 237.164702 
L 138.763636 254.162555 
L 160.407273 263.67433 
L 182.050909 270.195532 
L 236.16 277.201093 
L 290.269091 279.958125 
L 344.378182 280.653248 
L 398.487273 281.033627 
" style="fill:none;stroke:#e377c2;stroke-dasharray:7.4,3.2;stroke-dashoffset:0;stroke-width:2;"/>
    <defs>
     <path d="M 0 4 
C 1.060812 4 2.078319 3.578535 2.828427 2.828427 
C 3.578535 2.078319 4 1.060812 4 0 
C 4 -1.060812 3.578535 -2.078319 2.828427 -2.828427 
C 2.078319 -3.578535 1.060812 -4 0 -4 
C -1.060812 -4 -2.078319 -3.578535 -2.828427 -2.828427 
C -3.578535 -2.078319 -4 -1.060812 -4 0 
C -4 1.060812 -3.578535 2.078319 -2.828427 2.828427 
C -2.078319 3.578535 -1.060812 4 0 4 
z
" id="m4aa85ce6ce" style="stroke:#e377c2;"/>
    </defs>
    <g clip-path="url(#p2902ed3f19)">
     <use style="fill-opacity:0;stroke:#e377c2;" x="73.832727" xlink:href="#m4aa85ce6ce" y="175.416564"/>
     <use style="fill-opacity:0;stroke:#e377c2;" x="95.476364" xlink:href="#m4aa85ce6ce" y="211.730962"/>
     <use style="fill-opacity:0;stroke:#e377c2;" x="117.12" xlink:href="#m4aa85ce6ce" y="237.164702"/>
     <use style="fill-opacity:0;stroke:#e377c2;" x="138.763636" xlink:href="#m4aa85ce6ce" y="254.162555"/>
     <use style="fill-opacity:0;stroke:#e377c2;" x="160.407273" xlink:href="#m4aa85ce6ce" y="263.67433"/>
     <use style="fill-opacity:0;stroke:#e377c2;" x="182.050909" xlink:href="#m4aa85ce6ce" y="270.195532"/>
     <use style="fill-opacity:0;stroke:#e377c2;" x="236.16" xlink:href="#m4aa85ce6ce" y="277.201093"/>
     <use style="fill-opacity:0;stroke:#e377c2;" x="290.269091" xlink:href="#m4aa85ce6ce" y="279.958125"/>
     <use style="fill-opacity:0;stroke:#e377c2;" x="344.378182" xlink:href="#m4aa85ce6ce" y="280.653248"/>
     <use style="fill-opacity:0;stroke:#e377c2;" x="398.487273" xlink:href="#m4aa85ce6ce" y="281.033627"/>
    </g>
   </g>
   <g id="line2d_20">
    <path clip-path="url(#p2902ed3f19)" d="M 73.832727 203.420527 
L 95.476364 231.414201 
L 117.12 251.868516 
L 138.763636 264.146146 
L 160.407273 270.788979 
L 182.050909 275.601014 
L 236.16 280.958995 
L 290.269091 282.824427 
L 344.378182 283.502136 
L 398.487273 283.631572 
" style="fill:none;stroke:#7f7f7f;stroke-dasharray:7.4,3.2;stroke-dashoffset:0;stroke-width:2;"/>
    <defs>
     <path d="M 0 -4 
L -0.898056 -1.236068 
L -3.804226 -1.236068 
L -1.453085 0.472136 
L -2.351141 3.236068 
L -0 1.527864 
L 2.351141 3.236068 
L 1.453085 0.472136 
L 3.804226 -1.236068 
L 0.898056 -1.236068 
z
" id="m5c5eda3f2b" style="stroke:#7f7f7f;stroke-linejoin:bevel;"/>
    </defs>
    <g clip-path="url(#p2902ed3f19)">
     <use style="fill-opacity:0;stroke:#7f7f7f;stroke-linejoin:bevel;" x="73.832727" xlink:href="#m5c5eda3f2b" y="203.420527"/>
     <use style="fill-opacity:0;stroke:#7f7f7f;stroke-linejoin:bevel;" x="95.476364" xlink:href="#m5c5eda3f2b" y="231.414201"/>
     <use style="fill-opacity:0;stroke:#7f7f7f;stroke-linejoin:bevel;" x="117.12" xlink:href="#m5c5eda3f2b" y="251.868516"/>
     <use style="fill-opacity:0;stroke:#7f7f7f;stroke-linejoin:bevel;" x="138.763636" xlink:href="#m5c5eda3f2b" y="264.146146"/>
     <use style="fill-opacity:0;stroke:#7f7f7f;stroke-linejoin:bevel;" x="160.407273" xlink:href="#m5c5eda3f2b" y="270.788979"/>
     <use style="fill-opacity:0;stroke:#7f7f7f;stroke-linejoin:bevel;" x="182.050909" xlink:href="#m5c5eda3f2b" y="275.601014"/>
     <use style="fill-opacity:0;stroke:#7f7f7f;stroke-linejoin:bevel;" x="236.16" xlink:href="#m5c5eda3f2b" y="280.958995"/>
     <use style="fill-opacity:0;stroke:#7f7f7f;stroke-linejoin:bevel;" x="290.269091" xlink:href="#m5c5eda3f2b" y="282.824427"/>
     <use style="fill-opacity:0;stroke:#7f7f7f;stroke-linejoin:bevel;" x="344.378182" xlink:href="#m5c5eda3f2b" y="283.502136"/>
     <use style="fill-opacity:0;stroke:#7f7f7f;stroke-linejoin:bevel;" x="398.487273" xlink:href="#m5c5eda3f2b" y="283.631572"/>
    </g>
   </g>
   <g id="line2d_21">
    <path clip-path="url(#p2902ed3f19)" d="M 73.832727 53.568 
L 95.476364 129.466069 
L 117.12 183.362134 
L 138.763636 216.090682 
L 160.407273 234.322131 
L 182.050909 248.147607 
L 236.16 262.057037 
L 290.269091 266.549996 
L 344.378182 268.420794 
L 398.487273 268.446823 
" style="fill:none;stroke:#bcbd22;stroke-dasharray:7.4,3.2;stroke-dashoffset:0;stroke-width:2;"/>
    <defs>
     <path d="M 0 5.656854 
L 3.394113 0 
L 0 -5.656854 
L -3.394113 0 
z
" id="m01a6919cbb" style="stroke:#bcbd22;stroke-linejoin:miter;"/>
    </defs>
    <g clip-path="url(#p2902ed3f19)">
     <use style="fill-opacity:0;stroke:#bcbd22;stroke-linejoin:miter;" x="73.832727" xlink:href="#m01a6919cbb" y="53.568"/>
     <use style="fill-opacity:0;stroke:#bcbd22;stroke-linejoin:miter;" x="95.476364" xlink:href="#m01a6919cbb" y="129.466069"/>
     <use style="fill-opacity:0;stroke:#bcbd22;stroke-linejoin:miter;" x="117.12" xlink:href="#m01a6919cbb" y="183.362134"/>
     <use style="fill-opacity:0;stroke:#bcbd22;stroke-linejoin:miter;" x="138.763636" xlink:href="#m01a6919cbb" y="216.090682"/>
     <use style="fill-opacity:0;stroke:#bcbd22;stroke-linejoin:miter;" x="160.407273" xlink:href="#m01a6919cbb" y="234.322131"/>
     <use style="fill-opacity:0;stroke:#bcbd22;stroke-linejoin:miter;" x="182.050909" xlink:href="#m01a6919cbb" y="248.147607"/>
     <use style="fill-opacity:0;stroke:#bcbd22;stroke-linejoin:miter;" x="236.16" xlink:href="#m01a6919cbb" y="262.057037"/>
     <use style="fill-opacity:0;stroke:#bcbd22;stroke-linejoin:miter;" x="290.269091" xlink:href="#m01a6919cbb" y="266.549996"/>
     <use style="fill-opacity:0;stroke:#bcbd22;stroke-linejoin:miter;" x="344.378182" xlink:href="#m01a6919cbb" y="268.420794"/>
     <use style="fill-opacity:0;stroke:#bcbd22;stroke-linejoin:miter;" x="398.487273" xlink:href="#m01a6919cbb" y="268.446823"/>
    </g>
   </g>
   <g id="line2d_22">
    <path clip-path="url(#p2902ed3f19)" d="M 73.832727 99.595801 
L 95.476364 164.987799 
L 117.12 200.620411 
L 138.763636 230.232038 
L 160.407273 245.354522 
L 182.050909 258.475299 
L 236.16 268.028207 
L 290.269091 272.221799 
L 344.378182 272.830251 
L 398.487273 273.084475 
" style="fill:none;stroke:#17becf;stroke-dasharray:7.4,3.2;stroke-dashoffset:0;stroke-width:2;"/>
    <defs>
     <path d="M -0 4 
L 4 -4 
L -4 -4 
z
" id="mb08b8c1e16" style="stroke:#17becf;stroke-linejoin:miter;"/>
    </defs>
    <g clip-path="url(#p2902ed3f19)">
     <use style="fill-opacity:0;stroke:#17becf;stroke-linejoin:miter;" x="73.832727" xlink:href="#mb08b8c1e16" y="99.595801"/>
     <use style="fill-opacity:0;stroke:#17becf;stroke-linejoin:miter;" x="95.476364" xlink:href="#mb08b8c1e16" y="164.987799"/>
     <use style="fill-opacity:0;stroke:#17becf;stroke-linejoin:miter;" x="117.12" xlink:href="#mb08b8c1e16" y="200.620411"/>
     <use style="fill-opacity:0;stroke:#17becf;stroke-linejoin:miter;" x="138.763636" xlink:href="#mb08b8c1e16" y="230.232038"/>
     <use style="fill-opacity:0;stroke:#17becf;stroke-linejoin:miter;" x="160.407273" xlink:href="#mb08b8c1e16" y="245.354522"/>
     <use style="fill-opacity:0;stroke:#17becf;stroke-linejoin:miter;" x="182.050909" xlink:href="#mb08b8c1e16" y="258.475299"/>
     <use style="fill-opacity:0;stroke:#17becf;stroke-linejoin:miter;" x="236.16" xlink:href="#mb08b8c1e16" y="268.028207"/>
     <use style="fill-opacity:0;stroke:#17becf;stroke-linejoin:miter;" x="290.269091" xlink:href="#mb08b8c1e16" y="272.221799"/>
     <use style="fill-opacity:0;stroke:#17becf;stroke-linejoin:miter;" x="344.378182" xlink:href="#mb08b8c1e16" y="272.830251"/>
     <use style="fill-opacity:0;stroke:#17becf;stroke-linejoin:miter;" x="398.487273" xlink:href="#mb08b8c1e16" y="273.084475"/>
    </g>
   </g>
   <g id="line2d_23">
    <path clip-path="url(#p2902ed3f19)" d="M 73.832727 295.419008 
L 95.476364 295.424665 
L 117.12 295.432135 
L 138.763636 295.440483 
L 160.407273 295.450482 
L 182.050909 295.460674 
L 236.16 295.479606 
L 290.269091 295.486537 
L 344.378182 295.487741 
L 398.487273 295.487953 
" style="fill:none;stroke:#1f77b4;stroke-dasharray:7.4,3.2;stroke-dashoffset:0;stroke-width:2;"/>
    <defs>
     <path d="M -4 -0 
L 4 4 
L 4 -4 
z
" id="mc00ebdbab9" style="stroke:#1f77b4;stroke-linejoin:miter;"/>
    </defs>
    <g clip-path="url(#p2902ed3f19)">
     <use style="fill-opacity:0;stroke:#1f77b4;stroke-linejoin:miter;" x="73.832727" xlink:href="#mc00ebdbab9" y="295.419008"/>
     <use style="fill-opacity:0;stroke:#1f77b4;stroke-linejoin:miter;" x="95.476364" xlink:href="#mc00ebdbab9" y="295.424665"/>
     <use style="fill-opacity:0;stroke:#1f77b4;stroke-linejoin:miter;" x="117.12" xlink:href="#mc00ebdbab9" y="295.432135"/>
     <use style="fill-opacity:0;stroke:#1f77b4;stroke-linejoin:miter;" x="138.763636" xlink:href="#mc00ebdbab9" y="295.440483"/>
     <use style="fill-opacity:0;stroke:#1f77b4;stroke-linejoin:miter;" x="160.407273" xlink:href="#mc00ebdbab9" y="295.450482"/>
     <use style="fill-opacity:0;stroke:#1f77b4;stroke-linejoin:miter;" x="182.050909" xlink:href="#mc00ebdbab9" y="295.460674"/>
     <use style="fill-opacity:0;stroke:#1f77b4;stroke-linejoin:miter;" x="236.16" xlink:href="#mc00ebdbab9" y="295.479606"/>
     <use style="fill-opacity:0;stroke:#1f77b4;stroke-linejoin:miter;" x="290.269091" xlink:href="#mc00ebdbab9" y="295.486537"/>
     <use style="fill-opacity:0;stroke:#1f77b4;stroke-linejoin:miter;" x="344.378182" xlink:href="#mc00ebdbab9" y="295.487741"/>
     <use style="fill-opacity:0;stroke:#1f77b4;stroke-linejoin:miter;" x="398.487273" xlink:href="#mc00ebdbab9" y="295.487953"/>
    </g>
   </g>
   <g id="line2d_24">
    <path clip-path="url(#p2902ed3f19)" d="M 73.832727 295.159924 
L 95.476364 295.218452 
L 117.12 295.267525 
L 138.763636 295.318006 
L 160.407273 295.356183 
L 182.050909 295.384767 
L 236.16 295.426888 
L 290.269091 295.44415 
L 344.378182 295.450507 
L 398.487273 295.452641 
" style="fill:none;stroke:#ff7f0e;stroke-dasharray:7.4,3.2;stroke-dashoffset:0;stroke-width:2;"/>
    <defs>
     <path d="M 0 -4 
L -4 4 
L 4 4 
z
" id="m57d37ddc6f" style="stroke:#ff7f0e;stroke-linejoin:miter;"/>
    </defs>
    <g clip-path="url(#p2902ed3f19)">
     <use style="fill-opacity:0;stroke:#ff7f0e;stroke-linejoin:miter;" x="73.832727" xlink:href="#m57d37ddc6f" y="295.159924"/>
     <use style="fill-opacity:0;stroke:#ff7f0e;stroke-linejoin:miter;" x="95.476364" xlink:href="#m57d37ddc6f" y="295.218452"/>
     <use style="fill-opacity:0;stroke:#ff7f0e;stroke-linejoin:miter;" x="117.12" xlink:href="#m57d37ddc6f" y="295.267525"/>
     <use style="fill-opacity:0;stroke:#ff7f0e;stroke-linejoin:miter;" x="138.763636" xlink:href="#m57d37ddc6f" y="295.318006"/>
     <use style="fill-opacity:0;stroke:#ff7f0e;stroke-linejoin:miter;" x="160.407273" xlink:href="#m57d37ddc6f" y="295.356183"/>
     <use style="fill-opacity:0;stroke:#ff7f0e;stroke-linejoin:miter;" x="182.050909" xlink:href="#m57d37ddc6f" y="295.384767"/>
     <use style="fill-opacity:0;stroke:#ff7f0e;stroke-linejoin:miter;" x="236.16" xlink:href="#m57d37ddc6f" y="295.426888"/>
     <use style="fill-opacity:0;stroke:#ff7f0e;stroke-linejoin:miter;" x="290.269091" xlink:href="#m57d37ddc6f" y="295.44415"/>
     <use style="fill-opacity:0;stroke:#ff7f0e;stroke-linejoin:miter;" x="344.378182" xlink:href="#m57d37ddc6f" y="295.450507"/>
     <use style="fill-opacity:0;stroke:#ff7f0e;stroke-linejoin:miter;" x="398.487273" xlink:href="#m57d37ddc6f" y="295.452641"/>
    </g>
   </g>
   <g id="patch_3">
    <path d="M 57.6 307.584 
L 57.6 41.472 
" style="fill:none;stroke:#000000;stroke-linecap:square;stroke-linejoin:miter;stroke-width:0.8;"/>
   </g>
   <g id="patch_4">
    <path d="M 414.72 307.584 
L 414.72 41.472 
" style="fill:none;stroke:#000000;stroke-linecap:square;stroke-linejoin:miter;stroke-width:0.8;"/>
   </g>
   <g id="patch_5">
    <path d="M 57.6 307.584 
L 414.72 307.584 
" style="fill:none;stroke:#000000;stroke-linecap:square;stroke-linejoin:miter;stroke-width:0.8;"/>
   </g>
   <g id="patch_6">
    <path d="M 57.6 41.472 
L 414.72 41.472 
" style="fill:none;stroke:#000000;stroke-linecap:square;stroke-linejoin:miter;stroke-width:0.8;"/>
   </g>
   <g id="text_15">
    <!-- $\mathrm{SNR/NMSE\/\/150km/h}$ -->
    <defs>
     <path d="M 28.703125 67.59375 
L 5.90625 -1.40625 
L -0.90625 -1.40625 
L 22 67.59375 
z
" id="STIXGeneral-Regular-47"/>
     <path d="M 39.40625 0 
L 11.796875 0 
L 11.796875 1.5 
Q 17.296875 1.796875 19.296875 3.546875 
Q 21.296875 5.296875 21.296875 9.5 
L 21.296875 54.40625 
Q 21.296875 59.296875 18.296875 59.296875 
Q 16.90625 59.296875 13.796875 58.09375 
L 11.09375 57.09375 
L 11.09375 58.5 
L 29 67.59375 
L 29.90625 67.296875 
L 29.90625 7.59375 
Q 29.90625 4.296875 31.90625 2.890625 
Q 33.90625 1.5 39.40625 1.5 
z
" id="STIXGeneral-Regular-49"/>
     <path d="M 43.796875 68.09375 
L 40.203125 59.59375 
Q 39.59375 58.296875 37.5 58.296875 
L 18.09375 58.296875 
L 14.09375 49.796875 
Q 25.09375 47.703125 30 45.25 
Q 34.90625 42.796875 39.09375 37 
Q 42.59375 32.203125 42.59375 24.296875 
Q 42.59375 17.09375 40.25 12.1875 
Q 37.90625 7.296875 32.796875 3.5 
Q 26 -1.40625 15.796875 -1.40625 
Q 10.09375 -1.40625 6.59375 0.296875 
Q 3.09375 2 3.09375 4.796875 
Q 3.09375 8.59375 7.59375 8.59375 
Q 11.203125 8.59375 15 5.5 
Q 18.90625 2.296875 22.09375 2.296875 
Q 27.296875 2.296875 31.4375 7.5 
Q 35.59375 12.703125 35.59375 19.203125 
Q 35.59375 28.796875 28.90625 34.203125 
Q 20.203125 41.203125 7.59375 41.203125 
Q 6.40625 41.203125 6.40625 42 
L 6.5 42.5 
L 17.40625 66.203125 
L 38.09375 66.203125 
Q 39.796875 66.203125 40.75 66.703125 
Q 41.703125 67.203125 42.90625 68.796875 
z
" id="STIXGeneral-Regular-53"/>
     <path d="M 47.59375 33 
Q 47.59375 26.296875 46.296875 20.34375 
Q 45 14.40625 42.453125 9.40625 
Q 39.90625 4.40625 35.40625 1.5 
Q 30.90625 -1.40625 25 -1.40625 
Q 18.90625 -1.40625 14.296875 1.6875 
Q 9.703125 4.796875 7.203125 10 
Q 4.703125 15.203125 3.546875 21.09375 
Q 2.40625 27 2.40625 33.59375 
Q 2.40625 42.90625 4.703125 50.34375 
Q 7 57.796875 12.34375 62.6875 
Q 17.703125 67.59375 25.40625 67.59375 
Q 35.203125 67.59375 41.390625 58 
Q 47.59375 48.40625 47.59375 33 
z
M 38 32.5 
Q 38 48.296875 34.640625 56.640625 
Q 31.296875 65 24.796875 65 
Q 18.59375 65 15.296875 56.59375 
Q 12 48.203125 12 32.90625 
Q 12 17.5 15.296875 9.34375 
Q 18.59375 1.203125 25 1.203125 
Q 31.296875 1.203125 34.640625 9.34375 
Q 38 17.5 38 32.5 
z
" id="STIXGeneral-Regular-48"/>
     <path d="M 50.5 0 
L 28.703125 0 
L 28.703125 1.5 
L 30.59375 1.5 
Q 32.703125 1.5 32.703125 3 
Q 32.703125 3.90625 31.59375 5.296875 
L 16.59375 25.09375 
L 16.59375 6.703125 
Q 16.59375 4.09375 17.84375 2.890625 
Q 19.09375 1.703125 22.09375 1.59375 
L 24.09375 1.5 
L 24.09375 0 
L 0.703125 0 
L 0.703125 1.5 
Q 6.09375 2.40625 7.140625 3.34375 
Q 8.203125 4.296875 8.203125 8.203125 
L 8.203125 56.40625 
Q 8.203125 60 7.296875 61.25 
Q 6.40625 62.5 3.90625 62.5 
Q 3.296875 62.5 0.703125 62.296875 
L 0.703125 63.90625 
L 3.703125 64.703125 
Q 9.703125 66.296875 16.203125 68.296875 
L 16.59375 68.09375 
L 16.59375 26.09375 
L 30.296875 38.296875 
Q 32.59375 40.40625 32.59375 41.796875 
Q 32.59375 42.796875 31.546875 43.140625 
Q 30.5 43.5 27.59375 43.59375 
L 27.59375 45 
L 48 45 
L 48 43.5 
Q 43 43.5 39.140625 41.34375 
Q 35.296875 39.203125 26.40625 30.90625 
L 23.5 28.203125 
L 38.796875 8.796875 
Q 44.203125 1.90625 50.5 1.5 
z
" id="STIXGeneral-Regular-107"/>
     <path d="M 77.5 0 
L 55.703125 0 
L 55.703125 1.5 
Q 59.90625 1.90625 61.046875 3.25 
Q 62.203125 4.59375 62.203125 9 
L 62.203125 29.59375 
Q 62.203125 35.59375 60.453125 38.1875 
Q 58.703125 40.796875 54.5 40.796875 
Q 51 40.796875 48.546875 39.390625 
Q 46.09375 38 43.796875 34.703125 
L 43.796875 9.5 
Q 43.796875 4.703125 45.25 3.140625 
Q 46.703125 1.59375 51 1.5 
L 51 0 
L 28.59375 0 
L 28.59375 1.5 
Q 33 1.796875 34.203125 2.9375 
Q 35.40625 4.09375 35.40625 8.59375 
L 35.40625 29.703125 
Q 35.40625 40.796875 28.90625 40.796875 
Q 26.09375 40.796875 22.9375 39.546875 
Q 19.796875 38.296875 18.296875 36.5 
Q 17 35 17 34.796875 
L 17 7 
Q 17 3.796875 18.390625 2.75 
Q 19.796875 1.703125 23.796875 1.5 
L 23.796875 0 
L 1.59375 0 
L 1.59375 1.5 
Q 5.796875 1.59375 7.1875 3.046875 
Q 8.59375 4.5 8.59375 8.796875 
L 8.59375 33.59375 
Q 8.59375 37.296875 7.796875 38.75 
Q 7 40.203125 5.09375 40.203125 
Q 3.59375 40.203125 1.90625 39.796875 
L 1.90625 41.5 
Q 8.703125 43.40625 15.796875 46 
L 16.59375 45.703125 
L 16.59375 38.296875 
L 16.796875 38.296875 
Q 21.296875 43 24.75 44.5 
Q 28.203125 46 32.09375 46 
Q 40 46 42.703125 37.59375 
Q 50.5 46 59 46 
Q 70.59375 46 70.59375 28 
L 70.59375 7.703125 
Q 70.59375 4.40625 71.59375 3.15625 
Q 72.59375 1.90625 74.90625 1.703125 
L 77.5 1.5 
z
" id="STIXGeneral-Regular-109"/>
     <path d="M 48.703125 0 
L 27.5 0 
L 27.5 1.5 
Q 31.90625 2 33.09375 3.5 
Q 34.296875 5 34.296875 10.203125 
L 34.296875 30 
Q 34.296875 40.59375 26.90625 40.59375 
Q 23.90625 40.59375 21.40625 39.1875 
Q 18.90625 37.796875 15.703125 34.296875 
L 15.703125 10.203125 
Q 15.703125 5 16.890625 3.5 
Q 18.09375 2 22.5 1.5 
L 22.5 0 
L 0.90625 0 
L 0.90625 1.5 
Q 5.203125 2.09375 6.25 3.5 
Q 7.296875 4.90625 7.296875 10.203125 
L 7.296875 57.296875 
Q 7.296875 60.5 6.34375 61.453125 
Q 5.40625 62.40625 2.203125 62.40625 
Q 1.296875 62.40625 1 62.296875 
L 1 63.90625 
L 3.703125 64.703125 
Q 11.40625 67 15.203125 68.296875 
L 15.703125 68 
L 15.703125 37.59375 
Q 19.203125 42.09375 22.59375 44.046875 
Q 26 46 30.40625 46 
Q 42.703125 46 42.703125 30.09375 
L 42.703125 10.203125 
Q 42.703125 5 43.640625 3.640625 
Q 44.59375 2.296875 48.703125 1.5 
z
" id="STIXGeneral-Regular-104"/>
    </defs>
    <g transform="translate(170.01 35.472)scale(0.15 -0.15)">
     <use transform="translate(0 0.203125)" xlink:href="#STIXGeneral-Regular-83"/>
     <use transform="translate(55.599991 0.203125)" xlink:href="#STIXGeneral-Regular-78"/>
     <use transform="translate(127.799973 0.203125)" xlink:href="#STIXGeneral-Regular-82"/>
     <use transform="translate(194.499969 0.203125)" xlink:href="#STIXGeneral-Regular-47"/>
     <use transform="translate(222.299957 0.203125)" xlink:href="#STIXGeneral-Regular-78"/>
     <use transform="translate(294.499939 0.203125)" xlink:href="#STIXGeneral-Regular-77"/>
     <use transform="translate(383.399933 0.203125)" xlink:href="#STIXGeneral-Regular-83"/>
     <use transform="translate(438.999924 0.203125)" xlink:href="#STIXGeneral-Regular-69"/>
     <use transform="translate(526.033762 0.203125)" xlink:href="#STIXGeneral-Regular-49"/>
     <use transform="translate(576.033747 0.203125)" xlink:href="#STIXGeneral-Regular-53"/>
     <use transform="translate(626.033732 0.203125)" xlink:href="#STIXGeneral-Regular-48"/>
     <use transform="translate(676.033717 0.203125)" xlink:href="#STIXGeneral-Regular-107"/>
     <use transform="translate(726.033701 0.203125)" xlink:href="#STIXGeneral-Regular-109"/>
     <use transform="translate(803.833689 0.203125)" xlink:href="#STIXGeneral-Regular-47"/>
     <use transform="translate(831.633677 0.203125)" xlink:href="#STIXGeneral-Regular-104"/>
    </g>
   </g>
   <g id="legend_1">
    <g id="patch_7">
     <path d="M 296.675625 254.6745 
L 406.32 254.6745 
Q 408.72 254.6745 408.72 252.2745 
L 408.72 49.872 
Q 408.72 47.472 406.32 47.472 
L 296.675625 47.472 
Q 294.275625 47.472 294.275625 49.872 
L 294.275625 252.2745 
Q 294.275625 254.6745 296.675625 254.6745 
z
" style="fill:#ffffff;opacity:0.8;stroke:#cccccc;stroke-linejoin:miter;"/>
    </g>
    <g id="line2d_25">
     <path d="M 299.075625 56.472 
L 323.075625 56.472 
" style="fill:none;stroke:#1f77b4;stroke-linecap:square;stroke-width:2;"/>
    </g>
    <g id="line2d_26">
     <g>
      <use style="fill-opacity:0;stroke:#1f77b4;" x="311.075625" xlink:href="#m761f6aec0f" y="56.472"/>
     </g>
    </g>
    <g id="text_16">
     <!-- 1/2 DCT-OMP -->
     <defs>
      <path d="M 28.03125 69.4375 
L 4.046875 -1.375 
L 0.140625 -1.375 
L 24.125 69.4375 
z
" id="TimesNewRomanPSMT-47"/>
      <path id="TimesNewRomanPSMT-32"/>
      <path d="M 1.703125 0 
L 1.703125 1.8125 
L 4.203125 1.8125 
Q 8.40625 1.8125 10.15625 4.5 
Q 11.234375 6.109375 11.234375 11.71875 
L 11.234375 54.5 
Q 11.234375 60.6875 9.859375 62.25 
Q 7.953125 64.40625 4.203125 64.40625 
L 1.703125 64.40625 
L 1.703125 66.21875 
L 28.65625 66.21875 
Q 43.5 66.21875 51.234375 62.84375 
Q 58.984375 59.46875 63.6875 51.609375 
Q 68.40625 43.75 68.40625 33.453125 
Q 68.40625 19.625 60.015625 10.359375 
Q 50.59375 0 31.296875 0 
z
M 20.609375 4.78125 
Q 26.8125 3.421875 31 3.421875 
Q 42.328125 3.421875 49.796875 11.375 
Q 57.28125 19.34375 57.28125 32.953125 
Q 57.28125 46.6875 49.796875 54.59375 
Q 42.328125 62.5 30.609375 62.5 
Q 26.21875 62.5 20.609375 61.078125 
z
" id="TimesNewRomanPSMT-68"/>
      <path d="M 60.203125 67.71875 
L 61.71875 45.21875 
L 60.203125 45.21875 
Q 57.171875 55.328125 51.5625 59.765625 
Q 45.953125 64.203125 38.09375 64.203125 
Q 31.5 64.203125 26.171875 60.859375 
Q 20.84375 57.515625 17.796875 50.1875 
Q 14.75 42.875 14.75 31.984375 
Q 14.75 23 17.625 16.40625 
Q 20.515625 9.8125 26.296875 6.296875 
Q 32.078125 2.78125 39.5 2.78125 
Q 45.953125 2.78125 50.875 5.53125 
Q 55.8125 8.296875 61.71875 16.5 
L 63.234375 15.53125 
Q 58.25 6.6875 51.609375 2.578125 
Q 44.96875 -1.515625 35.84375 -1.515625 
Q 19.390625 -1.515625 10.359375 10.6875 
Q 3.609375 19.78125 3.609375 32.078125 
Q 3.609375 42 8.046875 50.296875 
Q 12.5 58.59375 20.28125 63.15625 
Q 28.078125 67.71875 37.3125 67.71875 
Q 44.484375 67.71875 51.46875 64.203125 
Q 53.515625 63.140625 54.390625 63.140625 
Q 55.71875 63.140625 56.6875 64.0625 
Q 57.953125 65.375 58.5 67.71875 
z
" id="TimesNewRomanPSMT-67"/>
      <path d="M 57.859375 66.21875 
L 58.59375 50.6875 
L 56.734375 50.6875 
Q 56.203125 54.78125 55.28125 56.546875 
Q 53.765625 59.375 51.25 60.71875 
Q 48.734375 62.0625 44.625 62.0625 
L 35.296875 62.0625 
L 35.296875 11.46875 
Q 35.296875 5.375 36.625 3.859375 
Q 38.484375 1.8125 42.328125 1.8125 
L 44.625 1.8125 
L 44.625 0 
L 16.546875 0 
L 16.546875 1.8125 
L 18.890625 1.8125 
Q 23.09375 1.8125 24.859375 4.34375 
Q 25.921875 5.90625 25.921875 11.46875 
L 25.921875 62.0625 
L 17.96875 62.0625 
Q 13.328125 62.0625 11.375 61.375 
Q 8.84375 60.453125 7.03125 57.8125 
Q 5.21875 55.171875 4.890625 50.6875 
L 3.03125 50.6875 
L 3.8125 66.21875 
z
" id="TimesNewRomanPSMT-84"/>
      <path d="M 36.578125 67.71875 
Q 49.46875 67.71875 58.90625 57.921875 
Q 68.359375 48.140625 68.359375 33.5 
Q 68.359375 18.40625 58.828125 8.4375 
Q 49.3125 -1.515625 35.796875 -1.515625 
Q 22.125 -1.515625 12.8125 8.203125 
Q 3.515625 17.921875 3.515625 33.34375 
Q 3.515625 49.125 14.265625 59.078125 
Q 23.578125 67.71875 36.578125 67.71875 
z
M 35.640625 64.15625 
Q 26.765625 64.15625 21.390625 57.5625 
Q 14.703125 49.359375 14.703125 33.546875 
Q 14.703125 17.328125 21.625 8.59375 
Q 26.953125 1.953125 35.6875 1.953125 
Q 45.015625 1.953125 51.09375 9.21875 
Q 57.171875 16.5 57.171875 32.171875 
Q 57.171875 49.171875 50.484375 57.515625 
Q 45.125 64.15625 35.640625 64.15625 
z
" id="TimesNewRomanPSMT-79"/>
      <path d="M 40.921875 0 
L 15.328125 55.71875 
L 15.328125 11.46875 
Q 15.328125 5.375 16.65625 3.859375 
Q 18.453125 1.8125 22.359375 1.8125 
L 24.703125 1.8125 
L 24.703125 0 
L 1.65625 0 
L 1.65625 1.8125 
L 4 1.8125 
Q 8.203125 1.8125 9.96875 4.34375 
Q 11.03125 5.90625 11.03125 11.46875 
L 11.03125 54.734375 
Q 11.03125 59.125 10.0625 61.078125 
Q 9.375 62.5 7.546875 63.453125 
Q 5.71875 64.40625 1.65625 64.40625 
L 1.65625 66.21875 
L 20.40625 66.21875 
L 44.4375 14.40625 
L 68.0625 66.21875 
L 86.8125 66.21875 
L 86.8125 64.40625 
L 84.515625 64.40625 
Q 80.28125 64.40625 78.515625 61.859375 
Q 77.4375 60.296875 77.4375 54.734375 
L 77.4375 11.46875 
Q 77.4375 5.375 78.8125 3.859375 
Q 80.609375 1.8125 84.515625 1.8125 
L 86.8125 1.8125 
L 86.8125 0 
L 58.6875 0 
L 58.6875 1.8125 
L 61.03125 1.8125 
Q 65.28125 1.8125 67 4.34375 
Q 68.0625 5.90625 68.0625 11.46875 
L 68.0625 55.71875 
L 42.53125 0 
z
" id="TimesNewRomanPSMT-77"/>
      <path d="M 20.515625 31 
L 20.515625 11.71875 
Q 20.515625 5.46875 21.875 3.953125 
Q 23.734375 1.8125 27.484375 1.8125 
L 30.03125 1.8125 
L 30.03125 0 
L 1.65625 0 
L 1.65625 1.8125 
L 4.15625 1.8125 
Q 8.34375 1.8125 10.15625 4.546875 
Q 11.140625 6.0625 11.140625 11.71875 
L 11.140625 54.5 
Q 11.140625 60.75 9.8125 62.25 
Q 7.90625 64.40625 4.15625 64.40625 
L 1.65625 64.40625 
L 1.65625 66.21875 
L 25.921875 66.21875 
Q 34.8125 66.21875 39.9375 64.375 
Q 45.0625 62.546875 48.578125 58.203125 
Q 52.09375 53.859375 52.09375 47.90625 
Q 52.09375 39.796875 46.75 34.71875 
Q 41.40625 29.640625 31.640625 29.640625 
Q 29.25 29.640625 26.46875 29.984375 
Q 23.6875 30.328125 20.515625 31 
z
M 20.515625 33.796875 
Q 23.09375 33.296875 25.09375 33.046875 
Q 27.09375 32.8125 28.515625 32.8125 
Q 33.59375 32.8125 37.28125 36.734375 
Q 40.96875 40.671875 40.96875 46.921875 
Q 40.96875 51.21875 39.203125 54.90625 
Q 37.453125 58.59375 34.21875 60.421875 
Q 31 62.25 26.90625 62.25 
Q 24.421875 62.25 20.515625 61.328125 
z
" id="TimesNewRomanPSMT-80"/>
     </defs>
     <g transform="translate(332.675625 60.672)scale(0.12 -0.12)">
      <use xlink:href="#TimesNewRomanPSMT-49"/>
      <use x="50" xlink:href="#TimesNewRomanPSMT-47"/>
      <use x="77.783203" xlink:href="#TimesNewRomanPSMT-50"/>
      <use x="127.783203" xlink:href="#TimesNewRomanPSMT-32"/>
      <use x="152.783203" xlink:href="#TimesNewRomanPSMT-68"/>
      <use x="225" xlink:href="#TimesNewRomanPSMT-67"/>
      <use x="291.699219" xlink:href="#TimesNewRomanPSMT-84"/>
      <use x="343.658203" xlink:href="#TimesNewRomanPSMT-45"/>
      <use x="376.958984" xlink:href="#TimesNewRomanPSMT-79"/>
      <use x="449.175781" xlink:href="#TimesNewRomanPSMT-77"/>
      <use x="538.091797" xlink:href="#TimesNewRomanPSMT-80"/>
     </g>
    </g>
    <g id="line2d_27">
     <path d="M 299.075625 73.438875 
L 323.075625 73.438875 
" style="fill:none;stroke:#ff7f0e;stroke-linecap:square;stroke-width:2;"/>
    </g>
    <g id="line2d_28">
     <g>
      <use style="fill-opacity:0;stroke:#ff7f0e;stroke-linejoin:bevel;" x="311.075625" xlink:href="#m60ab6e2017" y="73.438875"/>
     </g>
    </g>
    <g id="text_17">
     <!-- 1/2 DCT-SP -->
     <defs>
      <path d="M 45.84375 67.71875 
L 45.84375 44.828125 
L 44.046875 44.828125 
Q 43.171875 51.421875 40.890625 55.328125 
Q 38.625 59.234375 34.421875 61.515625 
Q 30.21875 63.8125 25.734375 63.8125 
Q 20.65625 63.8125 17.328125 60.71875 
Q 14.015625 57.625 14.015625 53.65625 
Q 14.015625 50.640625 16.109375 48.140625 
Q 19.140625 44.484375 30.515625 38.375 
Q 39.796875 33.40625 43.1875 30.734375 
Q 46.578125 28.078125 48.40625 24.453125 
Q 50.25 20.84375 50.25 16.890625 
Q 50.25 9.375 44.40625 3.921875 
Q 38.578125 -1.515625 29.390625 -1.515625 
Q 26.515625 -1.515625 23.96875 -1.078125 
Q 22.46875 -0.828125 17.703125 0.703125 
Q 12.9375 2.25 11.671875 2.25 
Q 10.453125 2.25 9.734375 1.515625 
Q 9.03125 0.78125 8.6875 -1.515625 
L 6.890625 -1.515625 
L 6.890625 21.1875 
L 8.6875 21.1875 
Q 9.96875 14.0625 12.109375 10.515625 
Q 14.265625 6.984375 18.671875 4.640625 
Q 23.09375 2.296875 28.375 2.296875 
Q 34.46875 2.296875 38 5.515625 
Q 41.546875 8.734375 41.546875 13.140625 
Q 41.546875 15.578125 40.203125 18.0625 
Q 38.875 20.5625 36.03125 22.703125 
Q 34.125 24.171875 25.625 28.921875 
Q 17.140625 33.6875 13.546875 36.515625 
Q 9.96875 39.359375 8.109375 42.765625 
Q 6.25 46.1875 6.25 50.296875 
Q 6.25 57.421875 11.71875 62.5625 
Q 17.1875 67.71875 25.640625 67.71875 
Q 30.90625 67.71875 36.8125 65.140625 
Q 39.546875 63.921875 40.671875 63.921875 
Q 41.9375 63.921875 42.75 64.671875 
Q 43.5625 65.4375 44.046875 67.71875 
z
" id="TimesNewRomanPSMT-83"/>
     </defs>
     <g transform="translate(332.675625 77.638875)scale(0.12 -0.12)">
      <use xlink:href="#TimesNewRomanPSMT-49"/>
      <use x="50" xlink:href="#TimesNewRomanPSMT-47"/>
      <use x="77.783203" xlink:href="#TimesNewRomanPSMT-50"/>
      <use x="127.783203" xlink:href="#TimesNewRomanPSMT-32"/>
      <use x="152.783203" xlink:href="#TimesNewRomanPSMT-68"/>
      <use x="225" xlink:href="#TimesNewRomanPSMT-67"/>
      <use x="291.699219" xlink:href="#TimesNewRomanPSMT-84"/>
      <use x="343.658203" xlink:href="#TimesNewRomanPSMT-45"/>
      <use x="376.958984" xlink:href="#TimesNewRomanPSMT-83"/>
      <use x="432.574219" xlink:href="#TimesNewRomanPSMT-80"/>
     </g>
    </g>
    <g id="line2d_29">
     <path d="M 299.075625 90.40575 
L 323.075625 90.40575 
" style="fill:none;stroke:#2ca02c;stroke-linecap:square;stroke-width:2;"/>
    </g>
    <g id="line2d_30">
     <g>
      <use style="fill-opacity:0;stroke:#2ca02c;stroke-linejoin:miter;" x="311.075625" xlink:href="#maa0ead33da" y="90.40575"/>
     </g>
    </g>
    <g id="text_18">
     <!-- 1/2 FFT-OMP -->
     <defs>
      <path d="M 20.453125 62.59375 
L 20.453125 36.578125 
L 32.515625 36.578125 
Q 36.671875 36.578125 38.59375 38.40625 
Q 40.53125 40.234375 41.15625 45.65625 
L 42.96875 45.65625 
L 42.96875 23.25 
L 41.15625 23.25 
Q 41.109375 27.09375 40.15625 28.90625 
Q 39.203125 30.71875 37.515625 31.609375 
Q 35.84375 32.515625 32.515625 32.515625 
L 20.453125 32.515625 
L 20.453125 11.71875 
Q 20.453125 6.6875 21.09375 5.078125 
Q 21.578125 3.859375 23.140625 2.984375 
Q 25.296875 1.8125 27.640625 1.8125 
L 30.03125 1.8125 
L 30.03125 0 
L 1.609375 0 
L 1.609375 1.8125 
L 3.953125 1.8125 
Q 8.0625 1.8125 9.90625 4.203125 
Q 11.078125 5.765625 11.078125 11.71875 
L 11.078125 54.5 
Q 11.078125 59.515625 10.453125 61.140625 
Q 9.96875 62.359375 8.453125 63.234375 
Q 6.34375 64.40625 3.953125 64.40625 
L 1.609375 64.40625 
L 1.609375 66.21875 
L 50.875 66.21875 
L 51.515625 51.65625 
L 49.8125 51.65625 
Q 48.53125 56.296875 46.84375 58.46875 
Q 45.171875 60.640625 42.703125 61.609375 
Q 40.234375 62.59375 35.0625 62.59375 
z
" id="TimesNewRomanPSMT-70"/>
     </defs>
     <g transform="translate(332.675625 94.60575)scale(0.12 -0.12)">
      <use xlink:href="#TimesNewRomanPSMT-49"/>
      <use x="50" xlink:href="#TimesNewRomanPSMT-47"/>
      <use x="77.783203" xlink:href="#TimesNewRomanPSMT-50"/>
      <use x="127.783203" xlink:href="#TimesNewRomanPSMT-32"/>
      <use x="152.783203" xlink:href="#TimesNewRomanPSMT-70"/>
      <use x="208.398438" xlink:href="#TimesNewRomanPSMT-70"/>
      <use x="264.013672" xlink:href="#TimesNewRomanPSMT-84"/>
      <use x="315.972656" xlink:href="#TimesNewRomanPSMT-45"/>
      <use x="349.273438" xlink:href="#TimesNewRomanPSMT-79"/>
      <use x="421.490234" xlink:href="#TimesNewRomanPSMT-77"/>
      <use x="510.40625" xlink:href="#TimesNewRomanPSMT-80"/>
     </g>
    </g>
    <g id="line2d_31">
     <path d="M 299.075625 107.372625 
L 323.075625 107.372625 
" style="fill:none;stroke:#d62728;stroke-linecap:square;stroke-width:2;"/>
    </g>
    <g id="line2d_32">
     <g>
      <use style="fill-opacity:0;stroke:#d62728;stroke-linejoin:miter;" x="311.075625" xlink:href="#m6cd47928f7" y="107.372625"/>
     </g>
    </g>
    <g id="text_19">
     <!-- 1/2 FFT-SP -->
     <g transform="translate(332.675625 111.572625)scale(0.12 -0.12)">
      <use xlink:href="#TimesNewRomanPSMT-49"/>
      <use x="50" xlink:href="#TimesNewRomanPSMT-47"/>
      <use x="77.783203" xlink:href="#TimesNewRomanPSMT-50"/>
      <use x="127.783203" xlink:href="#TimesNewRomanPSMT-32"/>
      <use x="152.783203" xlink:href="#TimesNewRomanPSMT-70"/>
      <use x="208.398438" xlink:href="#TimesNewRomanPSMT-70"/>
      <use x="264.013672" xlink:href="#TimesNewRomanPSMT-84"/>
      <use x="315.972656" xlink:href="#TimesNewRomanPSMT-45"/>
      <use x="349.273438" xlink:href="#TimesNewRomanPSMT-83"/>
      <use x="404.888672" xlink:href="#TimesNewRomanPSMT-80"/>
     </g>
    </g>
    <g id="line2d_33">
     <path d="M 299.075625 124.3395 
L 323.075625 124.3395 
" style="fill:none;stroke:#9467bd;stroke-linecap:square;stroke-width:2;"/>
    </g>
    <g id="line2d_34">
     <g>
      <use style="fill-opacity:0;stroke:#9467bd;stroke-linejoin:miter;" x="311.075625" xlink:href="#m534f54dd93" y="124.3395"/>
     </g>
    </g>
    <g id="text_20">
     <!-- 1/2 RM-Net -->
     <defs>
      <path d="M 67.578125 0 
L 49.90625 0 
L 27.484375 30.953125 
Q 25 30.859375 23.4375 30.859375 
Q 22.796875 30.859375 22.0625 30.875 
Q 21.34375 30.90625 20.5625 30.953125 
L 20.5625 11.71875 
Q 20.5625 5.46875 21.921875 3.953125 
Q 23.78125 1.8125 27.484375 1.8125 
L 30.078125 1.8125 
L 30.078125 0 
L 1.703125 0 
L 1.703125 1.8125 
L 4.203125 1.8125 
Q 8.40625 1.8125 10.203125 4.546875 
Q 11.234375 6.0625 11.234375 11.71875 
L 11.234375 54.5 
Q 11.234375 60.75 9.859375 62.25 
Q 7.953125 64.40625 4.203125 64.40625 
L 1.703125 64.40625 
L 1.703125 66.21875 
L 25.828125 66.21875 
Q 36.375 66.21875 41.375 64.671875 
Q 46.390625 63.140625 49.875 59.015625 
Q 53.375 54.890625 53.375 49.171875 
Q 53.375 43.0625 49.390625 38.5625 
Q 45.40625 34.078125 37.0625 32.234375 
L 50.734375 13.234375 
Q 55.421875 6.6875 58.78125 4.53125 
Q 62.15625 2.390625 67.578125 1.8125 
z
M 20.5625 34.03125 
Q 21.484375 34.03125 22.171875 34 
Q 22.859375 33.984375 23.296875 33.984375 
Q 32.765625 33.984375 37.578125 38.078125 
Q 42.390625 42.1875 42.390625 48.53125 
Q 42.390625 54.734375 38.5 58.609375 
Q 34.625 62.5 28.21875 62.5 
Q 25.390625 62.5 20.5625 61.578125 
z
" id="TimesNewRomanPSMT-82"/>
      <path d="M -1.3125 66.21875 
L 16.65625 66.21875 
L 57.125 16.546875 
L 57.125 54.734375 
Q 57.125 60.84375 55.765625 62.359375 
Q 53.953125 64.40625 50.046875 64.40625 
L 47.75 64.40625 
L 47.75 66.21875 
L 70.796875 66.21875 
L 70.796875 64.40625 
L 68.453125 64.40625 
Q 64.265625 64.40625 62.5 61.859375 
Q 61.421875 60.296875 61.421875 54.734375 
L 61.421875 -1.078125 
L 59.671875 -1.078125 
L 16.015625 52.25 
L 16.015625 11.46875 
Q 16.015625 5.375 17.328125 3.859375 
Q 19.1875 1.8125 23.046875 1.8125 
L 25.390625 1.8125 
L 25.390625 0 
L 2.34375 0 
L 2.34375 1.8125 
L 4.640625 1.8125 
Q 8.890625 1.8125 10.640625 4.34375 
Q 11.71875 5.90625 11.71875 11.46875 
L 11.71875 57.515625 
Q 8.84375 60.890625 7.34375 61.953125 
Q 5.859375 63.03125 2.984375 63.96875 
Q 1.5625 64.40625 -1.3125 64.40625 
z
" id="TimesNewRomanPSMT-78"/>
      <path d="M 10.640625 27.875 
Q 10.59375 17.921875 15.484375 12.25 
Q 20.359375 6.59375 26.953125 6.59375 
Q 31.34375 6.59375 34.59375 9 
Q 37.84375 11.421875 40.046875 17.28125 
L 41.546875 16.3125 
Q 40.53125 9.625 35.59375 4.125 
Q 30.671875 -1.375 23.25 -1.375 
Q 15.1875 -1.375 9.453125 4.90625 
Q 3.71875 11.1875 3.71875 21.78125 
Q 3.71875 33.25 9.59375 39.671875 
Q 15.484375 46.09375 24.359375 46.09375 
Q 31.890625 46.09375 36.71875 41.140625 
Q 41.546875 36.1875 41.546875 27.875 
z
M 10.640625 30.71875 
L 31.34375 30.71875 
Q 31.109375 35.015625 30.328125 36.765625 
Q 29.109375 39.5 26.6875 41.0625 
Q 24.265625 42.625 21.625 42.625 
Q 17.578125 42.625 14.375 39.46875 
Q 11.1875 36.328125 10.640625 30.71875 
z
" id="TimesNewRomanPSMT-101"/>
      <path d="M 16.109375 59.421875 
L 16.109375 44.734375 
L 26.5625 44.734375 
L 26.5625 41.3125 
L 16.109375 41.3125 
L 16.109375 12.3125 
Q 16.109375 7.953125 17.359375 6.4375 
Q 18.609375 4.9375 20.5625 4.9375 
Q 22.171875 4.9375 23.6875 5.9375 
Q 25.203125 6.9375 26.03125 8.890625 
L 27.9375 8.890625 
Q 26.21875 4.109375 23.09375 1.6875 
Q 19.96875 -0.734375 16.65625 -0.734375 
Q 14.40625 -0.734375 12.25 0.515625 
Q 10.109375 1.765625 9.078125 4.078125 
Q 8.0625 6.390625 8.0625 11.234375 
L 8.0625 41.3125 
L 0.984375 41.3125 
L 0.984375 42.921875 
Q 3.65625 44 6.46875 46.5625 
Q 9.28125 49.125 11.46875 52.640625 
Q 12.59375 54.5 14.59375 59.421875 
z
" id="TimesNewRomanPSMT-116"/>
     </defs>
     <g transform="translate(332.675625 128.5395)scale(0.12 -0.12)">
      <use xlink:href="#TimesNewRomanPSMT-49"/>
      <use x="50" xlink:href="#TimesNewRomanPSMT-47"/>
      <use x="77.783203" xlink:href="#TimesNewRomanPSMT-50"/>
      <use x="127.783203" xlink:href="#TimesNewRomanPSMT-32"/>
      <use x="152.783203" xlink:href="#TimesNewRomanPSMT-82"/>
      <use x="219.482422" xlink:href="#TimesNewRomanPSMT-77"/>
      <use x="308.398438" xlink:href="#TimesNewRomanPSMT-45"/>
      <use x="341.699219" xlink:href="#TimesNewRomanPSMT-78"/>
      <use x="413.916016" xlink:href="#TimesNewRomanPSMT-101"/>
      <use x="458.300781" xlink:href="#TimesNewRomanPSMT-116"/>
     </g>
    </g>
    <g id="line2d_35">
     <path d="M 299.075625 141.306375 
L 323.075625 141.306375 
" style="fill:none;stroke:#8c564b;stroke-linecap:square;stroke-width:2;"/>
    </g>
    <g id="line2d_36">
     <g>
      <use style="fill-opacity:0;stroke:#8c564b;stroke-linejoin:miter;" x="311.075625" xlink:href="#m677761c0c5" y="141.306375"/>
     </g>
    </g>
    <g id="text_21">
     <!-- 1/2 CsiNet -->
     <defs>
      <path d="M 32.03125 46.046875 
L 32.03125 30.8125 
L 30.421875 30.8125 
Q 28.5625 37.984375 25.65625 40.578125 
Q 22.75 43.171875 18.265625 43.171875 
Q 14.84375 43.171875 12.734375 41.359375 
Q 10.640625 39.546875 10.640625 37.359375 
Q 10.640625 34.625 12.203125 32.671875 
Q 13.71875 30.671875 18.359375 28.421875 
L 25.484375 24.953125 
Q 35.40625 20.125 35.40625 12.203125 
Q 35.40625 6.109375 30.78125 2.359375 
Q 26.171875 -1.375 20.453125 -1.375 
Q 16.359375 -1.375 11.078125 0.09375 
Q 9.46875 0.59375 8.453125 0.59375 
Q 7.328125 0.59375 6.6875 -0.6875 
L 5.078125 -0.6875 
L 5.078125 15.28125 
L 6.6875 15.28125 
Q 8.0625 8.453125 11.90625 4.984375 
Q 15.765625 1.515625 20.5625 1.515625 
Q 23.921875 1.515625 26.046875 3.484375 
Q 28.171875 5.46875 28.171875 8.25 
Q 28.171875 11.625 25.796875 13.921875 
Q 23.4375 16.21875 16.359375 19.734375 
Q 9.28125 23.25 7.078125 26.078125 
Q 4.890625 28.859375 4.890625 33.109375 
Q 4.890625 38.625 8.671875 42.328125 
Q 12.453125 46.046875 18.453125 46.046875 
Q 21.09375 46.046875 24.859375 44.921875 
Q 27.34375 44.1875 28.171875 44.1875 
Q 28.953125 44.1875 29.390625 44.53125 
Q 29.828125 44.875 30.421875 46.046875 
z
" id="TimesNewRomanPSMT-115"/>
      <path d="M 14.5 69.4375 
Q 16.546875 69.4375 17.984375 67.984375 
Q 19.4375 66.546875 19.4375 64.5 
Q 19.4375 62.453125 17.984375 60.984375 
Q 16.546875 59.515625 14.5 59.515625 
Q 12.453125 59.515625 10.984375 60.984375 
Q 9.515625 62.453125 9.515625 64.5 
Q 9.515625 66.546875 10.953125 67.984375 
Q 12.40625 69.4375 14.5 69.4375 
z
M 18.5625 46.046875 
L 18.5625 10.109375 
Q 18.5625 5.90625 19.171875 4.515625 
Q 19.78125 3.125 20.96875 2.4375 
Q 22.171875 1.765625 25.34375 1.765625 
L 25.34375 0 
L 3.609375 0 
L 3.609375 1.765625 
Q 6.890625 1.765625 8 2.390625 
Q 9.125 3.03125 9.78125 4.484375 
Q 10.453125 5.953125 10.453125 10.109375 
L 10.453125 27.34375 
Q 10.453125 34.625 10.015625 36.765625 
Q 9.671875 38.328125 8.9375 38.9375 
Q 8.203125 39.546875 6.9375 39.546875 
Q 5.5625 39.546875 3.609375 38.8125 
L 2.9375 40.578125 
L 16.40625 46.046875 
z
" id="TimesNewRomanPSMT-105"/>
     </defs>
     <g transform="translate(332.675625 145.506375)scale(0.12 -0.12)">
      <use xlink:href="#TimesNewRomanPSMT-49"/>
      <use x="50" xlink:href="#TimesNewRomanPSMT-47"/>
      <use x="77.783203" xlink:href="#TimesNewRomanPSMT-50"/>
      <use x="127.783203" xlink:href="#TimesNewRomanPSMT-32"/>
      <use x="152.783203" xlink:href="#TimesNewRomanPSMT-67"/>
      <use x="219.482422" xlink:href="#TimesNewRomanPSMT-115"/>
      <use x="258.398438" xlink:href="#TimesNewRomanPSMT-105"/>
      <use x="286.181641" xlink:href="#TimesNewRomanPSMT-78"/>
      <use x="358.398438" xlink:href="#TimesNewRomanPSMT-101"/>
      <use x="402.783203" xlink:href="#TimesNewRomanPSMT-116"/>
     </g>
    </g>
    <g id="line2d_37">
     <path d="M 299.075625 158.27325 
L 323.075625 158.27325 
" style="fill:none;stroke:#e377c2;stroke-dasharray:7.4,3.2;stroke-dashoffset:0;stroke-width:2;"/>
    </g>
    <g id="line2d_38">
     <g>
      <use style="fill-opacity:0;stroke:#e377c2;" x="311.075625" xlink:href="#m4aa85ce6ce" y="158.27325"/>
     </g>
    </g>
    <g id="text_22">
     <!-- 1/8 DCT-OMP -->
     <defs>
      <path d="M 19.1875 33.34375 
Q 11.328125 39.796875 9.046875 43.703125 
Q 6.78125 47.609375 6.78125 51.8125 
Q 6.78125 58.25 11.765625 62.90625 
Q 16.75 67.578125 25 67.578125 
Q 33.015625 67.578125 37.890625 63.234375 
Q 42.78125 58.890625 42.78125 53.328125 
Q 42.78125 49.609375 40.140625 45.75 
Q 37.5 41.890625 29.15625 36.671875 
Q 37.75 30.03125 40.53125 26.21875 
Q 44.234375 21.234375 44.234375 15.71875 
Q 44.234375 8.734375 38.90625 3.78125 
Q 33.59375 -1.171875 24.953125 -1.171875 
Q 15.53125 -1.171875 10.25 4.734375 
Q 6.0625 9.46875 6.0625 15.09375 
Q 6.0625 19.484375 9.015625 23.796875 
Q 11.96875 28.125 19.1875 33.34375 
z
M 26.859375 38.578125 
Q 32.71875 43.84375 34.28125 46.890625 
Q 35.84375 49.953125 35.84375 53.8125 
Q 35.84375 58.9375 32.953125 61.84375 
Q 30.078125 64.75 25.09375 64.75 
Q 20.125 64.75 17 61.859375 
Q 13.875 58.984375 13.875 55.125 
Q 13.875 52.59375 15.15625 50.046875 
Q 16.453125 47.515625 18.84375 45.21875 
z
M 21.484375 31.5 
Q 17.4375 28.078125 15.484375 24.046875 
Q 13.53125 20.015625 13.53125 15.328125 
Q 13.53125 9.03125 16.96875 5.25 
Q 20.40625 1.46875 25.734375 1.46875 
Q 31 1.46875 34.171875 4.4375 
Q 37.359375 7.421875 37.359375 11.671875 
Q 37.359375 15.1875 35.5 17.96875 
Q 32.03125 23.140625 21.484375 31.5 
z
" id="TimesNewRomanPSMT-56"/>
     </defs>
     <g transform="translate(332.675625 162.47325)scale(0.12 -0.12)">
      <use xlink:href="#TimesNewRomanPSMT-49"/>
      <use x="50" xlink:href="#TimesNewRomanPSMT-47"/>
      <use x="77.783203" xlink:href="#TimesNewRomanPSMT-56"/>
      <use x="127.783203" xlink:href="#TimesNewRomanPSMT-32"/>
      <use x="152.783203" xlink:href="#TimesNewRomanPSMT-68"/>
      <use x="225" xlink:href="#TimesNewRomanPSMT-67"/>
      <use x="291.699219" xlink:href="#TimesNewRomanPSMT-84"/>
      <use x="343.658203" xlink:href="#TimesNewRomanPSMT-45"/>
      <use x="376.958984" xlink:href="#TimesNewRomanPSMT-79"/>
      <use x="449.175781" xlink:href="#TimesNewRomanPSMT-77"/>
      <use x="538.091797" xlink:href="#TimesNewRomanPSMT-80"/>
     </g>
    </g>
    <g id="line2d_39">
     <path d="M 299.075625 175.240125 
L 323.075625 175.240125 
" style="fill:none;stroke:#7f7f7f;stroke-dasharray:7.4,3.2;stroke-dashoffset:0;stroke-width:2;"/>
    </g>
    <g id="line2d_40">
     <g>
      <use style="fill-opacity:0;stroke:#7f7f7f;stroke-linejoin:bevel;" x="311.075625" xlink:href="#m5c5eda3f2b" y="175.240125"/>
     </g>
    </g>
    <g id="text_23">
     <!-- 1/8 DCT-SP -->
     <g transform="translate(332.675625 179.440125)scale(0.12 -0.12)">
      <use xlink:href="#TimesNewRomanPSMT-49"/>
      <use x="50" xlink:href="#TimesNewRomanPSMT-47"/>
      <use x="77.783203" xlink:href="#TimesNewRomanPSMT-56"/>
      <use x="127.783203" xlink:href="#TimesNewRomanPSMT-32"/>
      <use x="152.783203" xlink:href="#TimesNewRomanPSMT-68"/>
      <use x="225" xlink:href="#TimesNewRomanPSMT-67"/>
      <use x="291.699219" xlink:href="#TimesNewRomanPSMT-84"/>
      <use x="343.658203" xlink:href="#TimesNewRomanPSMT-45"/>
      <use x="376.958984" xlink:href="#TimesNewRomanPSMT-83"/>
      <use x="432.574219" xlink:href="#TimesNewRomanPSMT-80"/>
     </g>
    </g>
    <g id="line2d_41">
     <path d="M 299.075625 192.207 
L 323.075625 192.207 
" style="fill:none;stroke:#bcbd22;stroke-dasharray:7.4,3.2;stroke-dashoffset:0;stroke-width:2;"/>
    </g>
    <g id="line2d_42">
     <g>
      <use style="fill-opacity:0;stroke:#bcbd22;stroke-linejoin:miter;" x="311.075625" xlink:href="#m01a6919cbb" y="192.207"/>
     </g>
    </g>
    <g id="text_24">
     <!-- 1/8 FFT-OMP -->
     <g transform="translate(332.675625 196.407)scale(0.12 -0.12)">
      <use xlink:href="#TimesNewRomanPSMT-49"/>
      <use x="50" xlink:href="#TimesNewRomanPSMT-47"/>
      <use x="77.783203" xlink:href="#TimesNewRomanPSMT-56"/>
      <use x="127.783203" xlink:href="#TimesNewRomanPSMT-32"/>
      <use x="152.783203" xlink:href="#TimesNewRomanPSMT-70"/>
      <use x="208.398438" xlink:href="#TimesNewRomanPSMT-70"/>
      <use x="264.013672" xlink:href="#TimesNewRomanPSMT-84"/>
      <use x="315.972656" xlink:href="#TimesNewRomanPSMT-45"/>
      <use x="349.273438" xlink:href="#TimesNewRomanPSMT-79"/>
      <use x="421.490234" xlink:href="#TimesNewRomanPSMT-77"/>
      <use x="510.40625" xlink:href="#TimesNewRomanPSMT-80"/>
     </g>
    </g>
    <g id="line2d_43">
     <path d="M 299.075625 209.173875 
L 323.075625 209.173875 
" style="fill:none;stroke:#17becf;stroke-dasharray:7.4,3.2;stroke-dashoffset:0;stroke-width:2;"/>
    </g>
    <g id="line2d_44">
     <g>
      <use style="fill-opacity:0;stroke:#17becf;stroke-linejoin:miter;" x="311.075625" xlink:href="#mb08b8c1e16" y="209.173875"/>
     </g>
    </g>
    <g id="text_25">
     <!-- 1/8 FFT-SP -->
     <g transform="translate(332.675625 213.373875)scale(0.12 -0.12)">
      <use xlink:href="#TimesNewRomanPSMT-49"/>
      <use x="50" xlink:href="#TimesNewRomanPSMT-47"/>
      <use x="77.783203" xlink:href="#TimesNewRomanPSMT-56"/>
      <use x="127.783203" xlink:href="#TimesNewRomanPSMT-32"/>
      <use x="152.783203" xlink:href="#TimesNewRomanPSMT-70"/>
      <use x="208.398438" xlink:href="#TimesNewRomanPSMT-70"/>
      <use x="264.013672" xlink:href="#TimesNewRomanPSMT-84"/>
      <use x="315.972656" xlink:href="#TimesNewRomanPSMT-45"/>
      <use x="349.273438" xlink:href="#TimesNewRomanPSMT-83"/>
      <use x="404.888672" xlink:href="#TimesNewRomanPSMT-80"/>
     </g>
    </g>
    <g id="line2d_45">
     <path d="M 299.075625 226.14075 
L 323.075625 226.14075 
" style="fill:none;stroke:#1f77b4;stroke-dasharray:7.4,3.2;stroke-dashoffset:0;stroke-width:2;"/>
    </g>
    <g id="line2d_46">
     <g>
      <use style="fill-opacity:0;stroke:#1f77b4;stroke-linejoin:miter;" x="311.075625" xlink:href="#mc00ebdbab9" y="226.14075"/>
     </g>
    </g>
    <g id="text_26">
     <!-- 1/8 RM-Net -->
     <g transform="translate(332.675625 230.34075)scale(0.12 -0.12)">
      <use xlink:href="#TimesNewRomanPSMT-49"/>
      <use x="50" xlink:href="#TimesNewRomanPSMT-47"/>
      <use x="77.783203" xlink:href="#TimesNewRomanPSMT-56"/>
      <use x="127.783203" xlink:href="#TimesNewRomanPSMT-32"/>
      <use x="152.783203" xlink:href="#TimesNewRomanPSMT-82"/>
      <use x="219.482422" xlink:href="#TimesNewRomanPSMT-77"/>
      <use x="308.398438" xlink:href="#TimesNewRomanPSMT-45"/>
      <use x="341.699219" xlink:href="#TimesNewRomanPSMT-78"/>
      <use x="413.916016" xlink:href="#TimesNewRomanPSMT-101"/>
      <use x="458.300781" xlink:href="#TimesNewRomanPSMT-116"/>
     </g>
    </g>
    <g id="line2d_47">
     <path d="M 299.075625 243.107625 
L 323.075625 243.107625 
" style="fill:none;stroke:#ff7f0e;stroke-dasharray:7.4,3.2;stroke-dashoffset:0;stroke-width:2;"/>
    </g>
    <g id="line2d_48">
     <g>
      <use style="fill-opacity:0;stroke:#ff7f0e;stroke-linejoin:miter;" x="311.075625" xlink:href="#m57d37ddc6f" y="243.107625"/>
     </g>
    </g>
    <g id="text_27">
     <!-- 1/8 CsiNet -->
     <g transform="translate(332.675625 247.307625)scale(0.12 -0.12)">
      <use xlink:href="#TimesNewRomanPSMT-49"/>
      <use x="50" xlink:href="#TimesNewRomanPSMT-47"/>
      <use x="77.783203" xlink:href="#TimesNewRomanPSMT-56"/>
      <use x="127.783203" xlink:href="#TimesNewRomanPSMT-32"/>
      <use x="152.783203" xlink:href="#TimesNewRomanPSMT-67"/>
      <use x="219.482422" xlink:href="#TimesNewRomanPSMT-115"/>
      <use x="258.398438" xlink:href="#TimesNewRomanPSMT-105"/>
      <use x="286.181641" xlink:href="#TimesNewRomanPSMT-78"/>
      <use x="358.398438" xlink:href="#TimesNewRomanPSMT-101"/>
      <use x="402.783203" xlink:href="#TimesNewRomanPSMT-116"/>
     </g>
    </g>
   </g>
  </g>
 </g>
 <defs>
  <clipPath id="p2902ed3f19">
   <rect height="266.112" width="357.12" x="57.6" y="41.472"/>
  </clipPath>
 </defs>
</svg>
